<svg xmlns="http://www.w3.org/2000/svg" width="153" height="24" viewBox="0 0 153 24"><g transform="translate(-15 -12)"><text transform="translate(107 29)" font-size="12" font-family="Poppins-Bold, Poppins" font-weight="700"><tspan x="-60.75" y="0">Adicionar utilizador</tspan></text><g transform="translate(15 12)"><g transform="translate(2 4)" style="isolation:isolate"><path d="M14.833,27.833V26.056A3.556,3.556,0,0,0,11.278,22.5H5.056A3.556,3.556,0,0,0,1.5,26.056v1.778" transform="translate(-1.5 -11.833)" fill="none" stroke="#000" stroke-linecap="round" stroke-linejoin="round" stroke-width="2"/><path d="M13.861,8.056A3.556,3.556,0,1,1,10.306,4.5,3.556,3.556,0,0,1,13.861,8.056Z" transform="translate(-3.639 -4.5)" fill="none" stroke="#000" stroke-linecap="round" stroke-linejoin="round" stroke-width="2"/><path d="M30,12v5.333" transform="translate(-13.111 -7.556)" fill="none" stroke="#000" stroke-linecap="round" stroke-linejoin="round" stroke-width="2"/><path d="M30.833,16.5H25.5" transform="translate(-11.278 -9.389)" fill="none" stroke="#000" stroke-linecap="round" stroke-linejoin="round" stroke-width="2"/></g><rect width="24" height="24" fill="none"/></g></g></svg>