<svg xmlns="http://www.w3.org/2000/svg" width="124.158" height="66.628" viewBox="0 0 124.158 66.628"><g transform="translate(2888.5 -14827.5)"><path d="M66.668,65.628H0V0H93.079V33.44h30.079V65.628Zm55.74-.709V34.152H93.079v0H67.542V64.918Zm-55.74,0V34.157H19.74V64.918ZM4.7,55.352v4.2h8.674V58.035H10.325V56.361c0-2.067,2.157-2.291,3.084-2.291V52.43a4.416,4.416,0,0,0-3.487,1.323L9.8,53.9l-.088-.163A2.375,2.375,0,0,0,7.565,52.43,2.878,2.878,0,0,0,4.7,55.352ZM6.56,48.265a3.253,3.253,0,0,0,3.413,3.312,3.348,3.348,0,0,0,3.551-3.365,3.657,3.657,0,0,0-1.157-2.746l-.856,1.083A2.246,2.246,0,0,1,12.2,48.2a1.871,1.871,0,0,1-1.629,1.88V45.09h-.6A3.265,3.265,0,0,0,6.56,48.265Zm.152-10.177H8.085a3.093,3.093,0,0,0-1.523,2.7,3.339,3.339,0,0,0,3.528,3.287,3.209,3.209,0,0,0,3.45-3.326,3.154,3.154,0,0,0-1.312-2.634,4.312,4.312,0,0,1,.54-.035,2.193,2.193,0,0,1,2.383,2.477,4.14,4.14,0,0,1-.669,2.106l1.248.629a5.185,5.185,0,0,0,.783-2.669c0-2.392-1.2-3.793-3.388-3.944-.17-.011-.341-.016-.51-.016a7.915,7.915,0,0,0-2.524.407,10.747,10.747,0,0,0-3.378-.39ZM3.875,34.3a.894.894,0,0,0,.933.973.888.888,0,0,0,.92-.973.876.876,0,0,0-.92-.968A.882.882,0,0,0,3.875,34.3Zm2.9.694h6.6V33.531h-6.6ZM92.326,33.4V.753H19.74V33.4ZM6.533,28.567a3.54,3.54,0,1,0,3.538-3.5A3.507,3.507,0,0,0,6.533,28.567Zm.176-4.658h6.663v-1.4H12.141a6.714,6.714,0,0,1-2.831-.573,1.975,1.975,0,0,1-1.318-1.732,1.287,1.287,0,0,1,1.4-1.375h3.981V17.448H9.357a2.634,2.634,0,0,0-2.783,2.594A2.714,2.714,0,0,0,8.4,22.5H6.709Zm0-13.649H8.085a3.068,3.068,0,0,0-1.509,2.621,3.317,3.317,0,0,0,3.562,3.363,3.291,3.291,0,0,0,3.4-3.325,3,3,0,0,0-1.461-2.648c.136-.01.211-.01.349-.01.184,0,.333,0,.476.005s.3.005.487.005V8.839h-.01a11.362,11.362,0,0,0-3.28.4,10.735,10.735,0,0,0-3.388-.392ZM3.688,7.482h9.684V6.071H3.688ZM92.846,58.14V48.358l-4.428,9.756H85.44l-4.719-9.993v9.993H77.029V39.921h3.8l6.066,13.287L92.77,39.921h3.769V58.14Zm12.6-.025V50.939L98.35,39.9h4.4l4.53,7.67L111.9,39.9h4.349l-7.119,11.043v7.175Zm-58.339,0V39.921H59.577v3.561H50.8v3.9h7.8V50.6H50.8v3.951h9.043v3.562Zm-19.531,0V39.92h7.043c5.377,0,9.6,3.954,9.6,9.1s-4.22,9.1-9.6,9.1Zm3.693-3.561h3.35a5.545,5.545,0,1,0,0-11.07h-3.35ZM8.852,58.035H6.221V55.352a1.375,1.375,0,0,1,1.344-1.4,1.3,1.3,0,0,1,1.288,1.4v2.681h0Zm.45-7.984a1.61,1.61,0,0,1-1.417-1.737A1.672,1.672,0,0,1,9.3,46.639V50.05h0ZM7.96,40.643c0-1.189,1.339-1.976,2.13-2.254a2.721,2.721,0,0,1,2.1,2.32,2.017,2.017,0,0,1-2.125,1.941A2,2,0,0,1,7.96,40.643ZM7.92,28.567A2.065,2.065,0,0,1,10.071,26.5a2.116,2.116,0,0,1,2.157,2.12,2.051,2.051,0,0,1-2.141,2.051A2.088,2.088,0,0,1,7.92,28.567ZM45.8,16.676C45.8,11.747,49.1,7,55.132,7a9.007,9.007,0,0,1,8.279,5.274L60.037,13.8a5.341,5.341,0,0,0-4.905-3.216c-3.558,0-5.614,2.741-5.614,6.089,0,3.377,2.108,5.963,5.614,5.963a4.979,4.979,0,0,0,5.064-3.8l3.561.975a8.589,8.589,0,0,1-8.625,6.405C49.6,26.221,45.8,22.108,45.8,16.676ZM78.7,25.7l-1.634-3.957H69.47L67.839,25.7H63.856L71.582,7.5h3.4L82.731,25.7Zm-7.934-7.067h5.008l-2.5-6.039ZM41.112,25.7l-1.634-3.957H31.884L30.253,25.7H26.27L34,7.5h3.4L45.145,25.7Zm-7.934-7.067h5.008l-2.5-6.039ZM7.946,12.854c0-1.077,1.082-1.9,2.154-2.245a2.665,2.665,0,0,1,2.088,2.283,1.994,1.994,0,0,1-2.061,1.914A1.975,1.975,0,0,1,7.946,12.854Z" transform="translate(-2888 14828)" fill="#fff"/><path d="M123.658,66.128H-.5V-.5H93.579V32.94h30.079ZM.5,65.128H19.24V.5H.5Zm67.542-.709h53.866V34.652H93.579l-.5,0H68.042Zm-47.8,0H66.168V34.657H20.24Zm0-31.514H91.826V1.253H20.24ZM13.872,60.057H4.2v-4.7A3.374,3.374,0,0,1,7.565,51.93a2.78,2.78,0,0,1,2.3,1.155,5.249,5.249,0,0,1,3.541-1.155h.5v2.64h-.5c-.965,0-2.584.233-2.584,1.791v1.174h3.047Zm-8.674-1h7.674v-.523H9.825V56.361c0-1.613,1.142-2.626,3.084-2.772v-.639a3.64,3.64,0,0,0-2.6,1.118l-.129.156-.472.572-.437-.806A1.886,1.886,0,0,0,7.565,52.93,2.382,2.382,0,0,0,5.2,55.356Zm91.841-.418H92.346v-7.97L88.74,58.614H85.123l-3.9-8.263v8.263H76.529V39.421h4.616l5.737,12.567,5.562-12.567h4.595Zm-3.693-1h2.693V40.421H93.1L86.9,54.427,80.5,40.421H77.529V57.614h2.693V45.891l5.535,11.723H88.1l5.25-11.567Zm16.288.975h-4.691V51.086L97.435,39.4h5.605l4.249,7.194,4.332-7.194h5.549l-7.537,11.691Zm-3.691-1h2.691V50.792l6.7-10.4h-3.149l-4.905,8.146L102.47,40.4h-3.2l6.677,10.4Zm-45.6,1H46.6V39.421H60.077v4.561H51.3v2.9h7.8V51.1H51.3v2.951h9.043Zm-12.736-1H59.341V55.052H50.3V50.1h7.8V47.883H50.3v-4.9h8.78V40.421H47.6Zm-12.988,1H27.073V39.42h7.543a10.348,10.348,0,0,1,7.159,2.756,9.428,9.428,0,0,1,0,13.679A10.347,10.347,0,0,1,34.616,58.613Zm-6.543-1h6.543c5.1,0,9.1-3.776,9.1-8.6s-4-8.6-9.1-8.6H28.073Zm-19.221.922H5.721V55.352a1.876,1.876,0,0,1,1.844-1.9,1.8,1.8,0,0,1,1.788,1.9v3.181Zm-2.132-1H8.353V55.352a.8.8,0,0,0-.788-.9.879.879,0,0,0-.844.9Zm27.9-2.482h-3.85V42.982h3.85a6.5,6.5,0,0,1,4.593,1.793,5.922,5.922,0,0,1,0,8.474A6.494,6.494,0,0,1,34.616,55.052Zm-2.85-1h2.85a5.159,5.159,0,0,0,5.378-5.035,5.1,5.1,0,0,0-5.378-5.035h-2.85ZM9.973,52.077A3.974,3.974,0,0,1,7.176,51a3.745,3.745,0,0,1,2.8-6.41h1.1v1.7l1.225-1.55.4.344a4.162,4.162,0,0,1,1.329,3.123,3.775,3.775,0,0,1-1.16,2.777A4.163,4.163,0,0,1,9.973,52.077Zm0-6.488A2.772,2.772,0,0,0,7.06,48.265a2.74,2.74,0,0,0,2.913,2.812,2.865,2.865,0,0,0,3.051-2.865,3.32,3.32,0,0,0-.625-1.98l-.234.3A2.855,2.855,0,0,1,12.7,48.2a2.361,2.361,0,0,1-2.013,2.366l-.616.147V45.59Zm1.1,1.241V49.35A1.257,1.257,0,0,0,11.7,48.2a1.757,1.757,0,0,0-.525-1.273ZM9.8,50.864l-.673-.339a2.093,2.093,0,0,1-1.746-2.211,2.138,2.138,0,0,1,1.794-2.159l.625-.161ZM8.8,47.4a1.055,1.055,0,0,0-.418.912,1.122,1.122,0,0,0,.418,1Zm1.287-2.83a3.827,3.827,0,0,1-4.028-3.787,3.589,3.589,0,0,1,.725-2.2H6.212V36.177h.5a11.532,11.532,0,0,1,3.375.366,8.431,8.431,0,0,1,2.528-.382c.184,0,.366.006.543.017,2.451.169,3.856,1.788,3.856,4.443a5.711,5.711,0,0,1-.864,2.941l-.244.377-2.148-1.082.3-.468a3.673,3.673,0,0,0,.588-1.833c0-1.071-.4-1.7-1.216-1.9a3.981,3.981,0,0,1-.5,4.863A4,4,0,0,1,10.09,44.571ZM7.212,37.588h2.66l-1.527.927a2.6,2.6,0,0,0-1.282,2.268,2.851,2.851,0,0,0,3.028,2.787,2.708,2.708,0,0,0,2.95-2.826,2.665,2.665,0,0,0-1.1-2.228l-1.031-.742,1.26-.16a4.812,4.812,0,0,1,.6-.039,2.693,2.693,0,0,1,2.883,2.977,4.475,4.475,0,0,1-.478,1.895l.357.18a4.706,4.706,0,0,0,.483-2.009c0-1.48-.507-3.278-2.923-3.445-.153-.01-.314-.015-.476-.015a7.414,7.414,0,0,0-2.365.381l-.156.052-.157-.05a9.156,9.156,0,0,0-2.725-.363Zm2.852,5.562A2.718,2.718,0,0,1,8.3,42.521a2.419,2.419,0,0,1-.835-1.878c0-1.373,1.328-2.326,2.465-2.725l.159-.056.161.052a3.2,3.2,0,0,1,2.444,2.8A2.511,2.511,0,0,1,10.064,43.15Zm.033-4.228c-.643.263-1.637.883-1.637,1.721a1.5,1.5,0,0,0,1.6,1.507,1.525,1.525,0,0,0,1.625-1.441C11.688,39.829,10.864,39.213,10.1,38.921ZM4.808,35.772A1.391,1.391,0,0,1,3.375,34.3a1.373,1.373,0,0,1,1.433-1.468A1.367,1.367,0,0,1,6.228,34.3,1.385,1.385,0,0,1,4.808,35.772Zm0-1.941c-.186,0-.433.048-.433.468,0,.314.146.473.433.473s.42-.159.42-.473C5.228,33.885,5,33.831,4.808,33.831Zm9.064,1.661h-7.6V33.031h7.6Zm-6.6-1h5.6v-.462h-5.6Zm2.8-1.875a4.026,4.026,0,1,1,4.041-4A4,4,0,0,1,10.071,32.618Zm0-7.052a3.026,3.026,0,1,0,0,6.052,3.026,3.026,0,1,0,0-6.052Zm.016,5.6A2.586,2.586,0,1,1,10.071,26a2.611,2.611,0,0,1,2.657,2.62A2.54,2.54,0,0,1,10.088,31.168ZM10.071,27A1.559,1.559,0,0,0,8.42,28.567a1.582,1.582,0,0,0,1.668,1.6,1.545,1.545,0,0,0,1.641-1.551A1.621,1.621,0,0,0,10.071,27Zm45.06-.277c-5.7,0-9.831-4.224-9.831-10.045a10.6,10.6,0,0,1,2.526-7.014A9.4,9.4,0,0,1,55.132,6.5a9.5,9.5,0,0,1,8.733,5.566l.21.457-4.29,1.94-.2-.459a4.83,4.83,0,0,0-4.449-2.92c-3.533,0-5.114,2.807-5.114,5.589,0,3.268,2.055,5.463,5.114,5.463a4.471,4.471,0,0,0,4.58-3.427l.129-.488,4.529,1.24-.13.481A8.95,8.95,0,0,1,60.781,25,9.7,9.7,0,0,1,55.132,26.721Zm0-19.218c-5.8,0-8.831,4.615-8.831,9.173a8.646,8.646,0,0,0,8.831,9.045,8.058,8.058,0,0,0,8-5.558l-2.6-.712a5.482,5.482,0,0,1-5.4,3.689,5.862,5.862,0,0,1-4.493-1.88,6.784,6.784,0,0,1-1.621-4.583,7.019,7.019,0,0,1,1.6-4.628,5.989,5.989,0,0,1,9.658,1.1l2.463-1.114A8.5,8.5,0,0,0,55.132,7.5ZM83.488,26.2H78.364L76.73,22.239H69.805L68.173,26.2H63.1L71.251,7h4.062Zm-4.454-1h2.942L74.652,8H71.913L64.612,25.2H67.5l1.632-3.957H77.4ZM45.9,26.2H40.778l-1.634-3.957H32.219L30.588,26.2H25.514L33.665,7h4.062Zm-4.454-1h2.942L37.065,8H34.326L27.025,25.2h2.893l1.631-3.957h8.263Zm-27.574-.787H6.209V22h.635a2.832,2.832,0,0,1-.77-1.959,3.123,3.123,0,0,1,3.283-3.094h4.516v2.384H9.392a.8.8,0,0,0-.9.875c0,.515.349.947,1.037,1.282a6.2,6.2,0,0,0,2.612.522h1.732Zm-6.663-1h5.663v-.4h-.732a8.071,8.071,0,0,1-2.075-.265L10.6,23H7.209Zm2.148-5.46a2.147,2.147,0,0,0-2.283,2.094A2.1,2.1,0,0,0,8.34,21.909a2.189,2.189,0,0,1-.848-1.7,1.787,1.787,0,0,1,1.9-1.875h3.481v-.384Zm67.164,1.181h-6.5l3.252-7.844Zm-5.008-1h3.511L73.269,13.9Zm-32.578,1H32.43l3.252-7.844Zm-5.009-1h3.511L35.682,13.9ZM10.138,16.743a4.2,4.2,0,0,1-2.911-1.075,3.776,3.776,0,0,1-1.151-2.787,3.494,3.494,0,0,1,.717-2.121H6.212V8.349h.5a11.5,11.5,0,0,1,3.394.37,12.071,12.071,0,0,1,3.259-.38l.526-.033V10.77h-.539a3.463,3.463,0,0,1,.688,2.148A3.779,3.779,0,0,1,10.138,16.743ZM7.212,9.76H9.864l-1.519.927a2.572,2.572,0,0,0-1.27,2.194,2.809,2.809,0,0,0,3.062,2.863,2.8,2.8,0,0,0,2.9-2.825A2.5,2.5,0,0,0,11.8,10.687l-1.215-.8,1.453-.111c.155-.012.247-.012.387-.012.183,0,.332,0,.463,0V9.346a10.156,10.156,0,0,0-2.648.375l-.149.044-.148-.048a9.142,9.142,0,0,0-2.734-.365Zm2.915,5.545a2.475,2.475,0,0,1-2.681-2.451c0-1.329,1.257-2.325,2.5-2.722l.154-.049.153.05a3.14,3.14,0,0,1,2.432,2.758A2.493,2.493,0,0,1,10.127,15.305ZM10.1,11.138c-.823.3-1.653.944-1.653,1.716a1.494,1.494,0,0,0,1.681,1.451,1.5,1.5,0,0,0,1.561-1.414C11.688,12.034,10.894,11.435,10.1,11.138Zm3.773-3.156H3.188V5.571H13.872Zm-9.684-1h8.684V6.571H4.188Z" transform="translate(-2888 14828)" fill="rgba(0,0,0,0)"/></g></svg>