<svg xmlns="http://www.w3.org/2000/svg" width="123.158" height="51.05" viewBox="0 0 123.158 51.05">
  <g id="BIAL-Regional-Academy" transform="translate(3545.356 6669.763)">
    <path id="Path_160596" data-name="Path 160596" d="M799.768,818.233l-2.552-3.644c.065-.046,6.573-4.663,10.193-11.159a13.912,13.912,0,0,0,.873-1.918,13.379,13.379,0,0,1-8.258-10.482c-.609-4.259,1.3-7.533,4.876-8.341a6.382,6.382,0,0,1,6.863,2.459c2.1,2.8,2.636,7.528,2.072,12.074,4.706-2.345,5.36-13.056,5.366-13.175l4.444.207c-.032.7-.891,16.872-10.862,17.825a19.339,19.339,0,0,1-1.489,3.519A42.907,42.907,0,0,1,799.768,818.233Zm6.834-31.3a3.271,3.271,0,0,0-.719.09c-1.633.37-1.612,2.272-1.455,3.373a9.161,9.161,0,0,0,4.93,6.761c.534-3.733.184-7.558-1.156-9.348A1.882,1.882,0,0,0,806.6,786.938Z" transform="translate(-4245.844 -7436.946)" fill="#fff"/>
    <g id="Group_70188" data-name="Group 70188" transform="translate(-3545.356 -6653.75)">
      <path id="Path_2" data-name="Path 2" d="M134.6,790.383h-3.165l-6.794,16h3.82l1.4-3.4h6.28l1.4,3.4h3.866l-6.77-15.888Zm.285,9.561h-3.757l1.878-4.527Z" transform="translate(-124.644 -789.953)" fill="#fff"/>
      <path id="Path_3" data-name="Path 3" d="M253.971,798.456l-3.413-.935-.047.179a4.075,4.075,0,0,1-4.173,3.126c-2.777,0-4.643-1.984-4.643-4.937,0-2.514,1.435-5.05,4.643-5.05a4.394,4.394,0,0,1,4.047,2.655l.075.168L253.7,792.2l-.077-.167a7.919,7.919,0,0,0-7.28-4.638c-5.386,0-8.2,4.275-8.2,8.5a8.023,8.023,0,0,0,8.2,8.385,7.512,7.512,0,0,0,7.585-5.641Z" transform="translate(-221.813 -787.39)" fill="#fff"/>
      <path id="Path_4" data-name="Path 4" d="M355.764,790.383H352.6l-6.794,16h3.82l1.4-3.4h6.28l1.4,3.4h3.866l-6.77-15.888Zm.285,9.561h-3.756l1.878-4.527Z" transform="translate(-313.999 -789.953)" fill="#fff"/>
      <path id="Path_5" data-name="Path 5" d="M476.116,790.383h-6.232v16h6.232a8.01,8.01,0,1,0,0-16Zm0,12.574h-2.694v-9.149h2.694a4.625,4.625,0,0,1,4.869,4.575A4.678,4.678,0,0,1,476.116,802.957Z" transform="translate(-420.232 -789.953)" fill="#fff"/>
      <path id="Path_6" data-name="Path 6" d="M587.479,799.925h6.706v-3.13h-6.706v-2.987h7.544v-3.425H583.941v16H595.25v-3.425h-7.771Z" transform="translate(-517.885 -789.952)" fill="#fff"/>
      <path id="Path_7" data-name="Path 7" d="M691.107,790.383l-4.936,11.155-5.091-11.155h-3.563v16h3.538v-7.953l3.756,7.953h2.794l3.505-7.72V806.4h3.538V790.383Z" transform="translate(-598.003 -789.952)" fill="#fff"/>
    </g>
    <path id="Subtraction_8" data-name="Subtraction 8" d="M38,12.694H6.347A6.347,6.347,0,0,1,6.347,0H38a6.347,6.347,0,0,1,0,12.694ZM15.55,9.329l-.222.81a3.348,3.348,0,0,0,1.6.373,1.766,1.766,0,0,0,1.96-2.023V4.99H18V5.5h-.016a1.329,1.329,0,0,0-1.19-.6,1.835,1.835,0,0,0-1.865,1.967A1.835,1.835,0,0,0,16.8,8.822,1.323,1.323,0,0,0,18,8.2h.016v.548c0,.61-.423.96-1.159.96a2.474,2.474,0,0,1-1.309-.382ZM33.38,4.894a1.889,1.889,0,0,0-1.865,2.031,1.867,1.867,0,0,0,1.872,2.023A1.351,1.351,0,0,0,34.61,8.3h.016v.555h.849V4.99h-.888V5.5H34.57A1.329,1.329,0,0,0,33.38,4.894Zm-9.34,0a1.934,1.934,0,0,0-2.055,2.031A1.93,1.93,0,0,0,24.04,8.949,1.931,1.931,0,0,0,26.1,6.925,1.935,1.935,0,0,0,24.04,4.894Zm-11.624,0a1.886,1.886,0,0,0-1.96,2.023,1.919,1.919,0,0,0,2.064,2.031,2.027,2.027,0,0,0,1.642-.706l-.635-.532a1.192,1.192,0,0,1-.984.452,1.1,1.1,0,0,1-1.175-.96h2.825c.007-.071.023-.277.023-.428A1.744,1.744,0,0,0,12.416,4.894ZM36.688,3.013v5.84h.889V3.013ZM28.936,5.7c.571,0,.825.333.825,1.079V8.853h.889V6.545c0-1.064-.5-1.651-1.413-1.651a1.525,1.525,0,0,0-1.3.643h-.015V4.99h-.889V8.853h.889V6.909C27.921,6.149,28.3,5.7,28.936,5.7ZM20.1,4.989V8.853h.889V4.989ZM6.575,6.822h.77L8.717,8.853h1.12L8.329,6.687A1.636,1.636,0,0,0,9.575,5.044,1.71,1.71,0,0,0,7.646,3.219H5.615V8.853h.96V6.823Zm13.965-3.6a.6.6,0,0,0,0,1.191.6.6,0,1,0,0-1.191ZM33.522,8.148a1.1,1.1,0,0,1-1.1-1.214,1.11,1.11,0,1,1,2.206,0A1.112,1.112,0,0,1,33.522,8.148Zm-9.482,0a1.149,1.149,0,0,1-1.15-1.222A1.153,1.153,0,0,1,24.04,5.7a1.141,1.141,0,0,1,1.151,1.23A1.137,1.137,0,0,1,24.04,8.148Zm-7.1-.127a1.057,1.057,0,0,1-1.1-1.151,1.105,1.105,0,1,1,2.206,0A1.068,1.068,0,0,1,16.938,8.021ZM13.352,6.529H11.376a1.025,1.025,0,0,1,1.031-.849.869.869,0,0,1,.944.848ZM7.44,5.981H6.575v-1.9H7.5c.686,0,1.079.347,1.079.952S8.155,5.981,7.44,5.981Z" transform="translate(-3510.846 -6668.771)" fill="#fff" stroke="rgba(0,0,0,0)" stroke-miterlimit="10" stroke-width="1"/>
    <g id="Group_70190" data-name="Group 70190" transform="translate(-3544.985 -6669.763)">
      <path id="Path_16" data-name="Path 16" d="M142.01,689.667H139v-9.223h3.014Zm.34-11.766a1.847,1.847,0,1,0-1.847,1.847A1.847,1.847,0,0,0,142.349,677.9Zm9.083,10.727c.068-.061.192-.177.354-.345a8.451,8.451,0,0,1,.113,1.384h3.014a11.2,11.2,0,0,0-.978-4.607,11.274,11.274,0,0,0,.978-4.617H151.9a8.474,8.474,0,0,1-.117,1.412c-.16-.165-.284-.279-.353-.34a4.808,4.808,0,0,0-6.861.038,4.984,4.984,0,0,0,0,7.041,4.808,4.808,0,0,0,6.864.035Zm-2.1-4.944a1.121,1.121,0,0,0,.092.085,7.034,7.034,0,0,1,1.082,1.3,7.184,7.184,0,0,1-1.089,1.319,1.124,1.124,0,0,0-.084.078,1.8,1.8,0,0,1-2.637,0,1.967,1.967,0,0,1,0-2.779,1.8,1.8,0,0,1,2.637,0Zm9.954-7.569h-3.014v13.552h3.014ZM137.8,685.423a4.249,4.249,0,0,1-4.244,4.244h-6.333V676.115h6.08a4.037,4.037,0,0,1,3.3,6.359A4.23,4.23,0,0,1,137.8,685.423Zm-4.5-6.294h-3.066v2.049H133.3a1.025,1.025,0,0,0,0-2.049Zm1.483,6.294a1.232,1.232,0,0,0-1.23-1.23h-3.319v2.461h3.319A1.232,1.232,0,0,0,134.786,685.423Z" transform="translate(-127.223 -676.054)" fill="#fff"/>
    </g>
  </g>
</svg>
