<svg xmlns="http://www.w3.org/2000/svg" xmlns:xlink="http://www.w3.org/1999/xlink" width="33.672" height="33.672" viewBox="0 0 33.672 33.672"><defs><clipPath id="a"><rect width="22.774" height="21.156" fill="#fff"/></clipPath></defs><g transform="translate(-1455.983 -1299.983)"><circle cx="16.836" cy="16.836" r="16.836" transform="translate(1455.983 1299.983)"/><g transform="translate(1461.036 1308.023)"><g transform="translate(0 0)" clip-path="url(#a)"><path d="M12.047,15.113H.966V.966H19.324V5.989a.483.483,0,1,0,.966,0V.483A.483.483,0,0,0,19.807,0H.483A.483.483,0,0,0,0,.483V15.6a.483.483,0,0,0,.483.483H12.047a.483.483,0,1,0,0-.966" transform="translate(0 0)" fill="#fff"/><path d="M42.67,22.879a5.119,5.119,0,1,0-8.2,4.078v4.611a.484.484,0,0,0,.724.419l2.356-1.354,2.357,1.354a.484.484,0,0,0,.241.064.484.484,0,0,0,.483-.483V26.958a5.109,5.109,0,0,0,2.038-4.079m-9.272,0a4.153,4.153,0,1,1,4.152,4.152A4.157,4.157,0,0,1,33.4,22.879m6.267,7.855-1.873-1.076a.485.485,0,0,0-.482,0l-1.873,1.076v-3.2a5.065,5.065,0,0,0,4.229,0Z" transform="translate(-19.896 -10.895)" fill="#fff"/><path d="M40.693,29.16a3.143,3.143,0,0,0,3.14-3.139.483.483,0,1,0-.966,0,2.172,2.172,0,1,1-1.426-2.041.483.483,0,0,0,.333-.908,3.14,3.14,0,1,0-1.081,6.088" transform="translate(-23.038 -14.037)" fill="#fff"/><path d="M42.114,26.94a.483.483,0,1,0-.683.683l1.246,1.246a.483.483,0,0,0,.683,0l2.431-2.432a.483.483,0,0,0-.683-.683l-2.09,2.09Z" transform="translate(-25.33 -15.713)" fill="#fff"/><path d="M24.148,17.088a.483.483,0,0,0-.483-.483H17.481a.483.483,0,0,0,0,.966h6.184a.483.483,0,0,0,.483-.483" transform="translate(-10.428 -10.187)" fill="#fff"/><path d="M22.012,22.029a.483.483,0,1,0,0,.966h2.681a.483.483,0,1,0,0-.966Z" transform="translate(-13.208 -13.514)" fill="#fff"/><path d="M20.281,8.957a.483.483,0,0,0,.483-.483V7.131a.483.483,0,0,0-.483-.483,1.163,1.163,0,0,1-1.162-1.162A.483.483,0,0,0,18.636,5H7.277a.483.483,0,0,0-.483.483A1.163,1.163,0,0,1,5.632,6.648a.483.483,0,0,0-.483.483v7.956a.483.483,0,0,0,.483.483,1.163,1.163,0,0,1,1.162,1.162.483.483,0,0,0,.483.483h6.928a.483.483,0,0,0,0-.966h-6.5a2.135,2.135,0,0,0-1.59-1.589v-7.1a2.135,2.135,0,0,0,1.59-1.589h10.5A2.134,2.134,0,0,0,19.8,7.559v.915a.483.483,0,0,0,.483.483" transform="translate(-3.159 -3.069)" fill="#fff"/></g></g></g></svg>