<svg xmlns="http://www.w3.org/2000/svg" width="61.829" height="61.829" viewBox="0 0 61.829 61.829"><g transform="translate(-792 -207)"><path d="M30.914,0A30.914,30.914,0,1,1,0,30.914,30.914,30.914,0,0,1,30.914,0Z" transform="translate(792 207)" fill="#eaeaea"/><g transform="translate(811 226)"><path d="M17,22H5a1,1,0,0,1,0-2c.469,0,1,0,1-2V5A3,3,0,0,1,9,2H19a3,3,0,0,1,3,3V17A5.006,5.006,0,0,1,17,22ZM7.751,20H17a3,3,0,0,0,3-3V5a1,1,0,0,0-1-1H9A1,1,0,0,0,8,5V18A6.687,6.687,0,0,1,7.751,20Z"/><path d="M5,7H7A1,1,0,0,1,8,8V18.5a3.984,3.984,0,0,1-.672,2.354A2.788,2.788,0,0,1,5,22a2.788,2.788,0,0,1-2.328-1.146A3.984,3.984,0,0,1,2,18.5V10A3,3,0,0,1,5,7ZM6,9H5a1,1,0,0,0-1,1v8.5c0,1,.336,1.5,1,1.5s1-.5,1-1.5Z"/><path d="M1-1A2,2,0,1,1-1,1,2,2,0,0,1,1-1Z" transform="translate(11 7)"/><path d="M17,15H11a1,1,0,0,1,0-2h6a1,1,0,0,1,0,2Z"/><path d="M14,18H11a1,1,0,0,1,0-2h3a1,1,0,0,1,0,2Z"/></g></g></svg>