<svg xmlns="http://www.w3.org/2000/svg" width="74.613" height="74.613" viewBox="0 0 74.613 74.613"><rect width="74.613" height="74.613" fill="none"/><g transform="translate(12.461 9.539)"><path d="M10.021,4H48.67a7.53,7.53,0,0,1,7.521,7.521V50.17a7.53,7.53,0,0,1-7.521,7.521H10.021A7.53,7.53,0,0,1,2.5,50.17V11.521A7.53,7.53,0,0,1,10.021,4ZM48.67,53.692a3.525,3.525,0,0,0,3.521-3.521V11.521A3.525,3.525,0,0,0,48.67,8H10.021A3.525,3.525,0,0,0,6.5,11.521V50.17a3.525,3.525,0,0,0,3.521,3.521Z" transform="translate(-4.5 -0.479)" fill="#010202"/><path d="M24,16.043a2,2,0,0,1-2-2V3a2,2,0,0,1,4,0V14.043A2,2,0,0,1,24,16.043Z" transform="translate(11.889 -3)" fill="#010202"/><path d="M12,16.043a2,2,0,0,1-2-2V3a2,2,0,0,1,4,0V14.043A2,2,0,0,1,12,16.043Z" transform="translate(1.803 -3)" fill="#010202"/><path d="M54.192,17H4.5a2,2,0,0,1,0-4H54.192a2,2,0,1,1,0,4Z" transform="translate(-4.5 7.085)" fill="#010202"/></g></svg>