<svg xmlns="http://www.w3.org/2000/svg" width="24" height="24" viewBox="0 0 24 24"><rect width="24" height="24" fill="none"/><g transform="translate(4.008 3.068)"><path d="M6.276,5H18.708a2.779,2.779,0,0,1,2.776,2.776V20.208a2.779,2.779,0,0,1-2.776,2.776H6.276A2.779,2.779,0,0,1,3.5,20.208V7.776A2.779,2.779,0,0,1,6.276,5ZM18.708,20.984a.777.777,0,0,0,.776-.776V7.776A.777.777,0,0,0,18.708,7H6.276a.777.777,0,0,0-.776.776V20.208a.777.777,0,0,0,.776.776Z" transform="translate(-4.5 -4.224)" fill="#010202"/><path d="M24,7.552a1,1,0,0,1-1-1V3a1,1,0,0,1,2,0V6.552A1,1,0,0,1,24,7.552Z" transform="translate(-12.456 -3)" fill="#010202"/><path d="M12,7.552a1,1,0,0,1-1-1V3a1,1,0,0,1,2,0V6.552A1,1,0,0,1,12,7.552Z" transform="translate(-7.56 -3)" fill="#010202"/><path d="M20.484,16H4.5a1,1,0,0,1,0-2H20.484a1,1,0,1,1,0,2Z" transform="translate(-4.5 -7.896)" fill="#010202"/></g></svg>