<svg xmlns="http://www.w3.org/2000/svg" width="18.343" height="15.654" viewBox="0 0 18.343 15.654"><g transform="translate(-0.562 1)"><path d="M14.969,29.532a1,1,0,0,1-.714-.3L11.286,26.2a1,1,0,0,1,1.429-1.4l2.255,2.3,2.255-2.3a1,1,0,0,1,1.429,1.4l-2.969,3.032A1,1,0,0,1,14.969,29.532Z" transform="translate(-5.235 -14.879)" fill="#fff"/><path d="M18,25.822a1,1,0,0,1-1-1V18a1,1,0,1,1,2,0v6.822A1,1,0,0,1,18,25.822Z" transform="translate(-8.265 -11.169)" fill="#fff"/><path d="M16.251,16.93a1,1,0,0,1-.584-1.812A2.82,2.82,0,0,0,16.7,11.981a2.713,2.713,0,0,0-2.585-1.942h-.936a1,1,0,0,1-.97-.756,5.009,5.009,0,0,0-4.22-3.768A4.94,4.94,0,0,0,3.05,8.2a5.192,5.192,0,0,0,.684,5.712,1,1,0,0,1-1.511,1.31,7.165,7.165,0,0,1-.954-7.932,6.975,6.975,0,0,1,2.9-2.978,6.842,6.842,0,0,1,7.828.919,7.034,7.034,0,0,1,1.919,2.81h.2a4.7,4.7,0,0,1,4.5,3.349,4.818,4.818,0,0,1-1.775,5.354A1,1,0,0,1,16.251,16.93Z" transform="translate(0.076 -4.482)" fill="#fff"/></g></svg>