<svg xmlns="http://www.w3.org/2000/svg" width="24" height="25" viewBox="0 0 24 25"><g transform="translate(2.989 5.418)"><path d="M4.7,5h13.6a2.727,2.727,0,0,1,2.7,2.747V18.231a2.727,2.727,0,0,1-2.7,2.747H4.7A2.727,2.727,0,0,1,2,18.231V7.747A2.727,2.727,0,0,1,4.7,5Zm13.6,13.978a.735.735,0,0,0,.7-.747V7.747a.735.735,0,0,0-.7-.747H4.7a.735.735,0,0,0-.7.747V18.231a.735.735,0,0,0,.7.747Z" transform="translate(-3 -6)" fill="#010202"/><path d="M11.5,16.115a1,1,0,0,1-.584-.188l-8.5-6.115A1,1,0,1,1,3.584,8.188l7.919,5.7,7.919-5.7A1,1,0,1,1,20.59,9.812l-8.5,6.115A1,1,0,0,1,11.5,16.115Z" transform="translate(-3 -7.253)" fill="#010202"/></g><rect width="24" height="25" fill="none"/></svg>