<svg xmlns="http://www.w3.org/2000/svg" xmlns:xlink="http://www.w3.org/1999/xlink" width="36" height="35" viewBox="0 0 36 35"><defs><clipPath id="a"><path d="M63.825,21.165A15.913,15.913,0,1,0,79.738,5.252,15.913,15.913,0,0,0,63.825,21.165" transform="translate(-63.825 -5.252)" fill="none"/></clipPath></defs><g transform="translate(2.076 2)"><g transform="translate(0 0)"><g transform="translate(0 0)" clip-path="url(#a)"><rect width="20.269" height="10.842" transform="translate(-8.384 -0.69)" fill="#00237c"/><path d="M5.564,0H0V3.41L27.143,21.332l6.606-2.72Z" transform="translate(-8.384 -0.69)" fill="#fff"/><path d="M0,2.167V4.511l27.5,18.16,1.076-1.632Z" transform="translate(-8.384 -2.573)" fill="#cf142b"/><rect width="20.271" height="10.842" transform="translate(20.173 -0.69)" fill="#00237c"/><path d="M142.979,0h5.562V3.41L121.4,21.332l-6.606-2.72Z" transform="translate(-108.097 -0.69)" fill="#fff"/><path d="M182.718,2.167V4.511l-27.5,18.16-1.079-1.632Z" transform="translate(-142.275 -2.573)" fill="#cf142b"/><rect width="20.271" height="10.842" transform="translate(20.173 21.156)" fill="#00237c"/><path d="M142.979,107.789h5.562V104.38L121.4,86.458l-6.606,2.72Z" transform="translate(-108.097 -75.791)" fill="#fff"/><path d="M182.718,111.1v-2.343l-27.5-18.16-1.079,1.633Z" transform="translate(-142.275 -79.385)" fill="#cf142b"/><rect width="20.269" height="10.842" transform="translate(-8.384 21.156)" fill="#00237c"/><path d="M5.564,107.789H0V104.38L27.143,86.458l6.606,2.72Z" transform="translate(-8.384 -75.791)" fill="#fff"/><path d="M0,111.1v-2.343L27.5,90.6l1.076,1.633Z" transform="translate(-8.384 -79.385)" fill="#cf142b"/><path d="M48.827,10.842H28.6V0H20.147V10.842H0V21.6H20.147V32.688H28.6V21.6H48.827Z" transform="translate(-8.384 -0.69)" fill="#fff"/><path d="M48.827,13.043H26.806V0H21.941V13.043H0V19.4H21.941V32.689h4.865V19.4H48.827Z" transform="translate(-8.384 -0.691)" fill="#cf142b"/></g></g><path d="M16,0A15.756,15.756,0,0,0,0,15.5,15.756,15.756,0,0,0,16,31,15.756,15.756,0,0,0,32,15.5,15.756,15.756,0,0,0,16,0m0-2A18.334,18.334,0,0,1,22.986-.633,17.976,17.976,0,0,1,28.705,3.1a17.421,17.421,0,0,1,3.87,5.563,17.1,17.1,0,0,1,0,13.667,17.421,17.421,0,0,1-3.87,5.563,17.976,17.976,0,0,1-5.719,3.736,18.531,18.531,0,0,1-13.972,0A17.976,17.976,0,0,1,3.295,27.9a17.421,17.421,0,0,1-3.87-5.563,17.1,17.1,0,0,1,0-13.667A17.421,17.421,0,0,1,3.295,3.1,17.976,17.976,0,0,1,9.014-.633,18.334,18.334,0,0,1,16-2Z" transform="translate(-0.076)" fill="#fff"/></g></svg>