<svg xmlns="http://www.w3.org/2000/svg" width="18" height="22" viewBox="0 0 18 22"><g transform="translate(-3 -1)"><path d="M6,1h7.56a2.984,2.984,0,0,1,2.1.855L20.1,6.2A3.017,3.017,0,0,1,21,8.342V20a3,3,0,0,1-3,3H6a3,3,0,0,1-3-3V4A3,3,0,0,1,6,1ZM18,21a1,1,0,0,0,1-1V8.342a1.006,1.006,0,0,0-.3-.715l-4.44-4.342A1,1,0,0,0,13.56,3H6A1,1,0,0,0,5,4V20a1,1,0,0,0,1,1Z" fill="#fff"/><path d="M15,14H9a1,1,0,0,1,0-2h6a1,1,0,0,1,0,2Z" fill="#fff"/><path d="M12,18H9a1,1,0,0,1,0-2h3a1,1,0,0,1,0,2Z" fill="#fff"/><path d="M20,9H16a3,3,0,0,1-3-3V2a1,1,0,0,1,2,0V6a1,1,0,0,0,1,1h4a1,1,0,0,1,0,2Z" fill="#fff"/></g></svg>