<svg xmlns="http://www.w3.org/2000/svg" width="14.187" height="14.187" viewBox="0 0 14.187 14.187"><path d="M9.664,1.928c-3.918,0-7.094.992-7.094,2.217v1.33l5.32,5.32v4.434c0,.49.794.887,1.773.887s1.773-.4,1.773-.887V10.8l5.32-5.32V4.145C16.758,2.921,13.582,1.928,9.664,1.928ZM3.878,3.851a6.034,6.034,0,0,1,1.348-.519,17.488,17.488,0,0,1,4.438-.517,17.488,17.488,0,0,1,4.438.517,6.035,6.035,0,0,1,1.348.519,1.542,1.542,0,0,1,.392.293,1.543,1.543,0,0,1-.392.293,6.035,6.035,0,0,1-1.348.519,17.487,17.487,0,0,1-4.438.517,17.488,17.488,0,0,1-4.438-.517,6.034,6.034,0,0,1-1.348-.519,1.544,1.544,0,0,1-.392-.293A1.544,1.544,0,0,1,3.878,3.851Z" transform="translate(-2.571 -1.928)"/></svg>