<svg xmlns="http://www.w3.org/2000/svg" width="35" height="35" viewBox="0 0 35 35"><g transform="translate(1.914 2)"><g transform="translate(0.3 0)"><path d="M259,31.922a15.919,15.919,0,0,0,10.448,14.949v-29.9A15.919,15.919,0,0,0,259,31.922" transform="translate(-259 -16.01)" fill="#0901e6"/><path d="M393.342,16.973v29.9a15.919,15.919,0,0,0,0-29.9" transform="translate(-371.964 -16.01)" fill="#f90300"/><path d="M330.122,10.919a15.883,15.883,0,0,0-5.465.963v29.9a15.982,15.982,0,0,0,10.93,0v-29.9a15.882,15.882,0,0,0-5.465-.963" transform="translate(-314.209 -10.919)" fill="#fff"/></g><path d="M15.5,0A15.5,15.5,0,1,0,31,15.5,15.5,15.5,0,0,0,15.5,0m0-2A17.5,17.5,0,0,1,27.874,27.874,17.5,17.5,0,1,1,8.688-.624,17.392,17.392,0,0,1,15.5-2Z" transform="translate(0.086)" fill="#fff"/></g></svg>