<svg xmlns="http://www.w3.org/2000/svg" width="24" height="18" viewBox="0 0 24 18"><g transform="translate(-0.5 -5)"><path d="M12.5,5a10.585,10.585,0,0,1,5.155,1.374,15.171,15.171,0,0,1,3.7,2.942,19.868,19.868,0,0,1,3.04,4.237,1,1,0,0,1,0,.894,19.868,19.868,0,0,1-3.04,4.237,15.171,15.171,0,0,1-3.7,2.942,10.354,10.354,0,0,1-10.31,0,15.171,15.171,0,0,1-3.7-2.942,19.868,19.868,0,0,1-3.04-4.237,1,1,0,0,1,0-.894,19.868,19.868,0,0,1,3.04-4.237,15.171,15.171,0,0,1,3.7-2.942A10.585,10.585,0,0,1,12.5,5Zm9.859,9a18.761,18.761,0,0,0-2.5-3.354C17.578,8.227,15.1,7,12.5,7c-5.395,0-8.925,5.391-9.859,7a18.761,18.761,0,0,0,2.5,3.354C7.422,19.773,9.9,21,12.5,21,17.895,21,21.425,15.609,22.359,14Z" fill="#010202"/><path d="M16.5,12.5a4,4,0,1,1-4,4A4,4,0,0,1,16.5,12.5Zm0,6a2,2,0,1,0-2-2A2,2,0,0,0,16.5,18.5Z" transform="translate(-4 -2.5)" fill="#010202"/></g></svg>