<svg xmlns="http://www.w3.org/2000/svg" width="18.189" height="16.379" viewBox="0 0 18.189 16.379"><g transform="translate(-467.918 -0.87)"><path d="M18.381,3,16.762,4.619m-6.16,6.16a4.452,4.452,0,1,1-6.3,0,4.452,4.452,0,0,1,6.3,0Zm0,0,3.327-3.327m0,0,2.428,2.428L19.19,7.047,16.762,4.619M13.928,7.452l2.833-2.833" transform="translate(465.917 -2.13)" fill="rgba(0,0,0,0)"/><path d="M7.453,19.379A5.452,5.452,0,1,1,10.536,9.43l5.518-5.518a1,1,0,0,1,1.414,0L19.9,6.34a1,1,0,0,1,0,1.414l-2.833,2.833a1,1,0,0,1-1.414,0L13.928,8.866l-1.977,1.977a5.453,5.453,0,0,1-4.5,8.536Zm0-8.9a3.449,3.449,0,1,0,2.462,1.029l-.021-.02A3.441,3.441,0,0,0,7.453,10.477Zm7.89-3.025,1.014,1.014,1.419-1.419L16.762,6.033Z" transform="translate(465.917 -2.13)" fill="#fff"/></g></svg>