<svg xmlns="http://www.w3.org/2000/svg" width="29" height="29" viewBox="0 0 29 29"><g transform="translate(-466 -411)"><circle cx="14.5" cy="14.5" r="14.5" transform="translate(466 411)" fill="#010202"/><g transform="translate(469.175 415.008)"><path d="M18.528,15.864A2.664,2.664,0,1,1,15.864,13.2,2.664,2.664,0,0,1,18.528,15.864Z" transform="translate(-4.539 -4.539)" fill="#fff"/><path d="M8.827,3,7.3,4.665H4.665A1.67,1.67,0,0,0,3,6.33v9.99a1.67,1.67,0,0,0,1.665,1.665h13.32A1.67,1.67,0,0,0,19.65,16.32V6.33a1.67,1.67,0,0,0-1.665-1.665H15.346L13.822,3Zm2.5,12.487a4.162,4.162,0,1,1,4.162-4.162A4.164,4.164,0,0,1,11.325,15.487Z" fill="#fff"/></g></g></svg>