<svg xmlns="http://www.w3.org/2000/svg" width="74.613" height="74.613" viewBox="0 0 74.613 74.613"><rect width="74.613" height="74.613" fill="none"/><g transform="translate(12.461 5.653)"><g transform="translate(-4.5 2.697)"><path d="M21.652,35.173a2,2,0,0,1-1.414-.586l-8.152-8.152a2,2,0,0,1,2.828-2.828l6.738,6.738L47.411,4.586A2,2,0,0,1,50.24,7.414L23.066,34.588A2,2,0,0,1,21.652,35.173Z" transform="translate(7.304 1.217)" fill="#010202"/><path d="M47.977,55.412H9.935A7.443,7.443,0,0,1,2.5,47.977V9.935A7.443,7.443,0,0,1,9.935,2.5H39.825a2,2,0,0,1,0,4H9.935A3.439,3.439,0,0,0,6.5,9.935V47.977a3.439,3.439,0,0,0,3.435,3.435H47.977a3.439,3.439,0,0,0,3.435-3.435V28.956a2,2,0,1,1,4,0V47.977A7.443,7.443,0,0,1,47.977,55.412Z" transform="translate(0 0)" fill="#010202"/></g></g></svg>