<svg xmlns="http://www.w3.org/2000/svg" width="24" height="24" viewBox="0 0 24 24"><path d="M9.08,21a.7.7,0,0,0-.483-.685.646.646,0,0,0-.709.121l-.06.06a3,3,0,1,1-4.244-4.243l.052-.053a.663.663,0,0,0-.465-1.12H3a3,3,0,1,1,0-6A.7.7,0,0,0,3.686,8.6a.647.647,0,0,0-.122-.709L3.5,7.828A3,3,0,1,1,7.747,3.583l.052.053a.652.652,0,0,0,.717.13,1.013,1.013,0,0,1,.2-.064A.647.647,0,0,0,9,3.17V3a3,3,0,1,1,6,0v.085a.653.653,0,0,0,.4.6.645.645,0,0,0,.708-.122l.06-.059a3,3,0,1,1,4.244,4.244l-.052.052a.649.649,0,0,0-.13.716.917.917,0,0,1,.064.2A.648.648,0,0,0,20.829,9H21a3,3,0,0,1,0,6h-.086a.664.664,0,0,0-.477,1.113l.059.059a3,3,0,1,1-4.243,4.244l-.052-.052a.663.663,0,0,0-1.12.465V21a3,3,0,0,1-6,0Zm.266-2.539A2.658,2.658,0,0,1,11.08,20.91V21a1,1,0,0,0,2,0v-.175a2.663,2.663,0,0,1,4.527-1.883l.06.061a1,1,0,1,0,1.415-1.417l-.067-.068a2.65,2.65,0,0,1-.532-2.918h0A2.65,2.65,0,0,1,20.909,13H21a1,1,0,0,0,0-2h-.175A2.649,2.649,0,0,1,18.4,9.394a.96.96,0,0,1-.073-.265,2.652,2.652,0,0,1,.615-2.736l.06-.06a1,1,0,0,0-1.417-1.416l-.068.068A2.663,2.663,0,0,1,13,3.091V3a1,1,0,0,0-2,0v.174A2.648,2.648,0,0,1,9.394,5.6a1,1,0,0,1-.265.072,2.654,2.654,0,0,1-2.737-.615L6.332,5A1,1,0,1,0,4.918,6.413l.068.067a2.625,2.625,0,0,1,.554,2.865,2.659,2.659,0,0,1-2.448,1.735H3a1,1,0,1,0,0,2h.174a2.663,2.663,0,0,1,1.883,4.527l-.06.06a1,1,0,0,0,1.417,1.416l.068-.068a2.678,2.678,0,0,1,1.864-.762A2.469,2.469,0,0,1,9.346,18.461ZM8,12a4,4,0,1,1,4,4A4,4,0,0,1,8,12Zm2,0a2,2,0,1,0,2-2A2,2,0,0,0,10,12Zm8.485,2.6v0h0l0,0Z" fill="#809fb8"/></svg>