<svg xmlns="http://www.w3.org/2000/svg" width="74.613" height="74.613" viewBox="0 0 74.613 74.613"><rect width="74.613" height="74.613" fill="none"/><path d="M32.326,20.107V10.331A7.331,7.331,0,0,0,24.994,3L15.219,24.994V51.877H42.786a4.888,4.888,0,0,0,4.888-4.155l3.372-21.994a4.888,4.888,0,0,0-4.888-5.621ZM15.219,51.877H7.888A4.888,4.888,0,0,1,3,46.989V29.882a4.888,4.888,0,0,1,4.888-4.888h7.331" transform="translate(9.461 9.852)" fill="rgba(0,0,0,0)"/><path d="M42.841,53.877H7.888A6.9,6.9,0,0,1,1,46.989V29.882a6.9,6.9,0,0,1,6.888-6.888h6.032L23.167,2.188A2,2,0,0,1,24.994,1a9.342,9.342,0,0,1,9.331,9.332v7.775H46.148a6.888,6.888,0,0,1,6.875,7.921l-3.373,22a6.888,6.888,0,0,1-6.809,5.852Zm-25.622-4H42.841A2.9,2.9,0,0,0,45.7,47.422l3.373-22a2.888,2.888,0,0,0-2.888-3.318H32.326a2,2,0,0,1-2-2V10.331a5.341,5.341,0,0,0-4.1-5.187L17.219,25.419ZM7.888,26.994A2.891,2.891,0,0,0,5,29.882V46.989a2.891,2.891,0,0,0,2.888,2.888h5.331V26.994Z" transform="translate(9.461 9.852)" fill="#2f8351"/></svg>