<svg xmlns="http://www.w3.org/2000/svg" width="74.613" height="74.613" viewBox="0 0 74.613 74.613"><rect width="74.613" height="74.613" fill="none"/><path d="M32.326,34.77v9.775a7.331,7.331,0,0,1-7.331,7.331L15.219,29.882V3H42.786a4.888,4.888,0,0,1,4.888,4.155l3.372,21.994a4.888,4.888,0,0,1-4.888,5.621ZM15.219,3H7.888A4.888,4.888,0,0,0,3,7.888V24.995a4.888,4.888,0,0,0,4.888,4.888h7.331" transform="translate(9.461 9.885)" fill="rgba(0,0,0,0)"/><path d="M24.994,53.877a2,2,0,0,1-1.828-1.188L13.919,31.882H7.888A6.9,6.9,0,0,1,1,24.995V7.888A6.9,6.9,0,0,1,7.888,1H42.776a6.888,6.888,0,0,1,6.875,5.855l3.372,21.991a6.888,6.888,0,0,1-6.875,7.924H34.326v7.775A9.342,9.342,0,0,1,24.994,53.877ZM17.219,29.458,26.23,49.732a5.341,5.341,0,0,0,4.1-5.187V34.77a2,2,0,0,1,2-2H46.214a2.888,2.888,0,0,0,2.855-3.321L45.7,7.458A2.9,2.9,0,0,0,42.808,5H17.219ZM7.888,5A2.891,2.891,0,0,0,5,7.888V24.995a2.891,2.891,0,0,0,2.888,2.888h5.331V5Z" transform="translate(9.461 9.885)" fill="#db0709"/></svg>