<svg xmlns="http://www.w3.org/2000/svg" width="74.613" height="74.613" viewBox="0 0 74.613 74.613"><rect width="74.613" height="74.613" fill="none"/><g transform="translate(6.888 8.775)"><path d="M30.14,56.342A26.2,26.2,0,0,1,11.955,11.274,2.1,2.1,0,0,1,14.877,14.3,21.99,21.99,0,1,0,32.236,8.248v8.2a2.109,2.109,0,1,1-4.219,0V6.047a2.108,2.108,0,0,1,2.109-2.109,26.2,26.2,0,0,1,.013,52.4Z" transform="translate(0 0)" fill="#010202"/><path d="M13.331,11.5l13.036,9.367a3.945,3.945,0,1,1-4.585,6.42,3.809,3.809,0,0,1-.917-.917L11.5,13.332A1.314,1.314,0,0,1,13.331,11.5Z" transform="translate(6.315 6.314)" fill="#010202"/></g></svg>