<svg xmlns="http://www.w3.org/2000/svg" width="74.613" height="74.613" viewBox="0 0 74.613 74.613"><rect width="74.613" height="74.613" fill="none"/><g transform="translate(-5587.527 -3354.721)"><path d="M5-2H43.93a7.008,7.008,0,0,1,7,7V43.912a7.008,7.008,0,0,1-7,7H5a7.008,7.008,0,0,1-7-7V5A7.008,7.008,0,0,1,5-2ZM43.93,46.912a3,3,0,0,0,3-3V5a3,3,0,0,0-3-3H5A3,3,0,0,0,2,5V43.912a3,3,0,0,0,3,3Z" transform="translate(5599.987 3367.572)" fill="#010202"/><path d="M12.2,12.68a1.992,1.992,0,0,1-1.316-.495L-1.317,1.505a2,2,0,0,1-.188-2.822,2,2,0,0,1,2.822-.188L13.523,9.175A2,2,0,0,1,12.2,12.68Z" transform="translate(5617.964 3397.518)" fill="#010202"/><path d="M0,12.98a2,2,0,0,1-1.488-.662,2,2,0,0,1,.149-2.824L10.868-1.487a2,2,0,0,1,2.824.149,2,2,0,0,1-.149,2.824L1.338,12.467A1.993,1.993,0,0,1,0,12.98Z" transform="translate(5617.964 3397.218)" fill="#010202"/><path d="M0,10.684a1.994,1.994,0,0,1-1.456-.628,2,2,0,0,1,.083-2.827L7.839-1.455a2,2,0,0,1,2.827.083,2,2,0,0,1-.083,2.827L1.372,10.139A1.993,1.993,0,0,1,0,10.684Z" transform="translate(5621.729 3377.055)" fill="#010202"/><path d="M3.767,6.841a2,2,0,0,1-1.58-.772L-1.579,1.228a2,2,0,0,1,.351-2.807,2,2,0,0,1,2.807.351L5.344,3.613A2,2,0,0,1,3.767,6.841Z" transform="translate(5617.964 3380.898)" fill="#010202"/></g></svg>