<svg xmlns="http://www.w3.org/2000/svg" width="79.436" height="79.436" viewBox="0 0 79.436 79.436"><g transform="translate(-387.657 -198)"><circle cx="39.718" cy="39.718" r="39.718" transform="translate(387.657 198)" fill="#fff"/><g transform="translate(404.297 215)"><path d="M22.95,34H11.465A5.2,5.2,0,0,1,6.3,28.155L7.651,17.395A7.312,7.312,0,0,1,14.892,11h4.629a7.312,7.312,0,0,1,7.246,6.395l1.344,10.76A5.2,5.2,0,0,1,22.95,34ZM14.893,13a5.309,5.309,0,0,0-5.257,4.643L8.289,28.4A3.2,3.2,0,0,0,11.465,32v1l0-1H22.95a3.2,3.2,0,0,0,3.176-3.6l-1.344-10.76A5.308,5.308,0,0,0,19.524,13Z" transform="translate(6.494 11)"/><path d="M6.3-1A7.3,7.3,0,1,1-1,6.3,7.308,7.308,0,0,1,6.3-1Zm0,12.6A5.3,5.3,0,1,0,1,6.3,5.306,5.306,0,0,0,6.3,11.6Z" transform="translate(17.403 2)"/><path d="M4.2-1A5.2,5.2,0,1,1-1,4.2,5.206,5.206,0,0,1,4.2-1Zm0,8.4A3.2,3.2,0,1,0,1,4.2,3.2,3.2,0,0,0,4.2,7.4Z" transform="translate(2.703 12.5)"/><path d="M4.2-1A5.2,5.2,0,1,1-1,4.2,5.206,5.206,0,0,1,4.2-1Zm0,8.4A3.2,3.2,0,1,0,1,4.2,3.2,3.2,0,0,0,4.2,7.4Z" transform="translate(36.303 12.5)"/><path d="M13.2,27.6H5.561a5.2,5.2,0,0,1-5.13-6.055l.7-4.2A5.2,5.2,0,0,1,6.261,13H6.9a1,1,0,1,1,0,2H6.261A3.19,3.19,0,0,0,3.1,17.674l-.7,4.2A3.2,3.2,0,0,0,5.561,25.6H13.2a1,1,0,0,1,0,2Z" transform="translate(0 13.2)"/><path d="M24.642,27.6H17a1,1,0,0,1,0-2h7.642A3.2,3.2,0,0,0,27.8,21.874l-.7-4.2A3.19,3.19,0,0,0,23.943,15H23.3a1,1,0,0,1,0-2h.643a5.2,5.2,0,0,1,5.13,4.345l.7,4.2A5.2,5.2,0,0,1,24.642,27.6Z" transform="translate(17.203 13.2)"/></g></g></svg>