<svg xmlns="http://www.w3.org/2000/svg" width="34" height="30" viewBox="0 0 34 30"><path d="M12.49,1.25A2.508,2.508,0,0,1,15,3.751V7.772c5.5.139,9.4.9,12.23,2.393a10.419,10.419,0,0,1,4.23,3.905A12.494,12.494,0,0,1,31.289,26.4a14.416,14.416,0,0,1-3.909,4.435,2.129,2.129,0,0,1-1.259.413,2.169,2.169,0,0,1-1.743-.877,2.008,2.008,0,0,1-.3-1.807c1.1-3.527,1.1-5.986-.009-7.517C22.816,19.312,20,18.446,15,18.279V22.75a2.5,2.5,0,0,1-4.134,1.892l-11-9.5a2.5,2.5,0,0,1,0-3.784l11-9.5A2.488,2.488,0,0,1,12.49,1.25Zm13.63,28a.135.135,0,0,0,.083-.03c2.31-1.68,4.8-5.158,4.8-8.825,0-7.42-4.928-10.5-17.011-10.641a1,1,0,0,1-.989-1v-5a.5.5,0,0,0-.51-.5.475.475,0,0,0-.317.123l-11,9.5a.5.5,0,0,0,0,.757l11,9.5a.475.475,0,0,0,.317.122.5.5,0,0,0,.509-.5V17.255a1,1,0,0,1,1.014-1,29.131,29.131,0,0,1,7.117.8,7.932,7.932,0,0,1,4.562,2.823,6.869,6.869,0,0,1,1.212,3.958,16.854,16.854,0,0,1-.915,5.328.116.116,0,0,0-.005.022A.175.175,0,0,0,26.12,29.25Z" transform="translate(1 -1.25)" fill="#010202"/></svg>