<svg xmlns="http://www.w3.org/2000/svg" xmlns:xlink="http://www.w3.org/1999/xlink" width="393" height="235.078" viewBox="0 0 393 235.078"><defs><clipPath id="a"><rect width="227.486" height="151.138" fill="none"/></clipPath></defs><g opacity="0.1"><rect width="393" height="235.078" fill="#163986"/><g transform="translate(165.514 83.937)"><g clip-path="url(#a)"><path d="M809.1,948.958l-11.885-16.971c.3-.214,30.614-21.719,47.472-51.971a64.782,64.782,0,0,0,4.067-8.934c-20.893-7.456-35.54-28.41-38.461-48.82-2.838-19.835,6.076-35.084,22.709-38.85,12.9-2.921,24.252,1.145,31.966,11.451,9.771,13.054,12.276,35.063,9.652,56.232,21.917-10.92,24.966-60.807,24.992-61.364l20.7.962c-.149,3.238-4.152,78.578-50.587,83.02a90.08,90.08,0,0,1-6.936,16.388C843.555,924.611,810.5,947.98,809.1,948.958ZM840.929,803.2a15.223,15.223,0,0,0-3.35.417c-7.6,1.722-7.509,10.581-6.775,15.708,1.638,11.447,10.053,25.873,22.963,31.489,2.486-17.388.858-35.2-5.384-43.539C846.3,804.494,844.013,803.2,840.929,803.2Z" transform="translate(-670.001 -762.541)" fill="#fff"/></g></g></g></svg>