<svg xmlns="http://www.w3.org/2000/svg" xmlns:xlink="http://www.w3.org/1999/xlink" width="1265.688" height="1080" viewBox="0 0 1265.688 1080"><defs><clipPath id="a"><path d="M328.318,17.283H0V345.6H328.318V666.3H977.334V17.283Z" transform="translate(0 -17.283)" fill="none"/></clipPath><clipPath id="b"><rect width="649.016" height="430.976" fill="none"/></clipPath></defs><g transform="translate(-148.679)" opacity="0.05"><path d="M177.926,209.419,89.9,16.583H34.819V280.611h53.6V135.591l68.472,145.02H200.07l64.307-141.577v141.96h53.6V16.583h-54.7Z" transform="translate(718.437 688.244)" fill="#eaeaea"/><g transform="translate(148.679)"><rect width="649.016" height="649.016" transform="translate(328.318 0.008)" fill="#fcded6"/><rect width="328.318" height="328.318" fill="#00b9d6"/><rect width="649.016" height="430.976" transform="translate(616.664 649.024)" fill="#ff7d5a"/><rect width="199.637" height="323.448" transform="translate(977.334 325.569)" fill="#010202"/><rect width="183.449" height="183.457" transform="translate(433.599 647.956)" fill="#ffc600"/><g clip-path="url(#a)"><path d="M300.907,855.668c-.275-2.05-27.931-202.143-153.461-459.645C104.278,399.856,61.9,375.908,39.133,345.2c-24.867-33.515-18.623-62.883-4.508-79.189,13.078-15.065,32.635-22.2,53.835-19.589,31.732,3.951,65.012,29.227,91.01,68,40.136-17.987,98.519-48.5,130.055-102.941,35.793-61.776,39.249-116.113,11.907-187.5L384.109,0c34.528,90.193,29.439,165.8-16.534,245.131C327.282,314.69,257.4,352.643,211.2,373.709,338.875,637.941,366.288,838.191,367.434,846.9Z" transform="translate(152.533 -135.749)" fill="#1a397a"/></g><g transform="translate(616.671 649.016)"><g clip-path="url(#b)"><path d="M107.443,508.218l58.445,31.143c47.19-88.567,98.817-182.09,140.32-253.818-28.449,123.724-36.178,181.085,5.443,198.444,20.461,8.522,37.065,4.728,47.394.047,31.756-14.4,44.676-52.806,59.639-97.278,10.619-31.575,23.838-70.879,40.262-81.168C482.7,290.7,533.588,291.7,561.7,307.6l32.6-57.644c-49.64-28.088-126.143-28.308-170.529-.487-34.646,21.71-51.431,67.525-65.632,109.554,6.567-33.264,15.222-70.054,21.309-95.911,24.192-102.839,27.86-124.612,15.481-143.187a35.238,35.238,0,0,0-23.752-15.458c-26.619-4.422-42.611,16.809-78.286,74.091-20.131,32.337-46.554,77.547-78.5,134.351-54.18,96.32-106.436,194.328-106.955,195.31" transform="translate(119.795 -72.577)" fill="#fff"/></g></g></g></g></svg>