<svg xmlns="http://www.w3.org/2000/svg" width="122" height="33.185" viewBox="0 0 122 33.185"><path d="M35.057,32.271H27.911V10.4h7.146Zm.8-27.894a4.377,4.377,0,1,0-4.377,4.377A4.376,4.376,0,0,0,35.862,4.377ZM57.4,29.81c.161-.145.456-.417.84-.819a20.08,20.08,0,0,1,.267,3.282h7.146A26.557,26.557,0,0,0,63.33,21.351a26.705,26.705,0,0,0,2.319-10.944H58.5a19.933,19.933,0,0,1-.278,3.345c-.379-.39-.674-.66-.838-.808a11.4,11.4,0,0,0-16.265.09,11.816,11.816,0,0,0,0,16.693A11.4,11.4,0,0,0,57.4,29.81ZM52.427,18.088a2.519,2.519,0,0,0,.218.2,16.612,16.612,0,0,1,2.565,3.072,16.937,16.937,0,0,1-2.584,3.127,2.112,2.112,0,0,0-.2.186,4.274,4.274,0,0,1-6.251,0,4.661,4.661,0,0,1,0-6.587,4.271,4.271,0,0,1,6.248,0ZM76.026.142H68.88V32.271h7.146ZM25.076,22.208A10.075,10.075,0,0,1,15.013,32.271H0V.142H14.415A9.571,9.571,0,0,1,22.246,15.22a10.025,10.025,0,0,1,2.83,6.991ZM14.415,7.288H7.146v4.86h7.269a2.428,2.428,0,1,0,0-4.857Zm3.514,14.92a2.922,2.922,0,0,0-2.917-2.917H7.143v5.834h7.869A2.922,2.922,0,0,0,17.929,22.208Z" fill="#fff"/><path d="M114.312,25.971h.925V28.11h.377a2.128,2.128,0,0,0,2.055-2.139h.941a2.85,2.85,0,0,1-1.28,2.418l-.112.076.12.06a2.918,2.918,0,0,1,1.454,2.628h-.98a1.965,1.965,0,0,0-1.934-2.177h-.641v2.177h-.925Zm8.428,3.5h-2.982a1.122,1.122,0,0,0,1.122.971,1.344,1.344,0,0,0,.985-.415l.646.513a2.191,2.191,0,0,1-1.643.693,2,2,0,0,1-2.011-2.123,1.926,1.926,0,0,1,1.981-2.041,1.959,1.959,0,0,1,1.9,2.041v.36Zm-.925-.761a1,1,0,0,0-1-.851.963.963,0,0,0-1.04.851Zm5.362.761h-2.982a1.122,1.122,0,0,0,1.122.971,1.344,1.344,0,0,0,.985-.415l.646.513a2.191,2.191,0,0,1-1.643.693,2,2,0,0,1-2.011-2.123,1.926,1.926,0,0,1,1.981-2.041,1.959,1.959,0,0,1,1.9,2.041v.36Zm-.925-.761a1,1,0,0,0-1-.851.963.963,0,0,0-1.04.851Zm2.439-1.506v.739a1.8,1.8,0,0,1,1.588-.881,1.952,1.952,0,0,1,1.981,2.025,2.008,2.008,0,0,1-2.024,2.153,1.81,1.81,0,0,1-1.545-.911V32.9h-.843V30.953a5.87,5.87,0,0,1,.227-1.823,6.447,6.447,0,0,1-.24-1.929h.859Zm1.545,3.209a1.2,1.2,0,0,0,1.176-1.326,1.17,1.17,0,0,0-1.13-1.211,1.615,1.615,0,0,0-1.386,1.258C129.092,29.668,129.559,30.413,130.236,30.413Zm3.391-4.947a.554.554,0,1,1-.579.557A.53.53,0,0,1,133.627,25.466Zm-.415,1.738h.874l-.006,3.945h-.873Zm1.943,3.945V27.2H136v.971a1.64,1.64,0,0,1,1.468-1.091,1.581,1.581,0,0,1,1.55,1.664v2.4h-.829V28.77a.77.77,0,0,0-.822-.835c-.925,0-1.378,1.271-1.378,2.478v.737h-.833Zm5.425.658a2.467,2.467,0,0,0,1.257.4c1.13,0,1.588-.715,1.46-1.746a1.88,1.88,0,0,1-1.575.783,1.915,1.915,0,0,1-1.989-2.063A1.987,1.987,0,0,1,141.7,27.07a1.849,1.849,0,0,1,1.613.911V27.2h.843a6.333,6.333,0,0,1-.234,1.975,4.811,4.811,0,0,1,.234,1.814,2.064,2.064,0,0,1-2.358,2.025,3.1,3.1,0,0,1-1.6-.467l.377-.745Zm1.2-3.9a1.2,1.2,0,0,0-1.2,1.258,1.208,1.208,0,0,0,1.16,1.272,1.615,1.615,0,0,0,1.386-1.258C142.943,28.642,142.46,27.905,141.783,27.905Zm-27.469,11.46v-5.79h.843v5.79Zm2.35-5.678a.554.554,0,1,1-.579.557A.53.53,0,0,1,116.664,33.687Zm-.415,1.733h.873v3.945h-.873Zm2.319,3.945V36.121h-.633v-.7h.633v-.363a1.409,1.409,0,0,1,1.4-1.558,1.862,1.862,0,0,1,1.053.355l-.488.647a.986.986,0,0,0-.556-.18c-.527,0-.574.458-.574.813l.009.287h.949v.7h-.949v3.244Zm6.147-1.67h-2.982a1.124,1.124,0,0,0,1.122.971,1.344,1.344,0,0,0,.985-.415l.647.513a2.192,2.192,0,0,1-1.643.693,2.005,2.005,0,0,1-2.011-2.123,1.926,1.926,0,0,1,1.981-2.041,1.959,1.959,0,0,1,1.9,2.041v.36Zm-.928-.761a1,1,0,0,0-1-.851.964.964,0,0,0-1.04.851Zm3.769-3.247a.554.554,0,1,1-.579.557A.529.529,0,0,1,127.556,33.687Zm-.415,1.733h.873v3.945h-.873Zm1.943,3.945V35.42h.843v.971A1.638,1.638,0,0,1,131.4,35.3a1.581,1.581,0,0,1,1.55,1.664v2.4h-.83V36.986a.769.769,0,0,0-.822-.835c-.925,0-1.378,1.272-1.378,2.478v.737h-.832Zm6.245,0V35.42h.835v.993a1.654,1.654,0,0,1,1.468-1.113,1.378,1.378,0,0,1,1.34,1.121,1.655,1.655,0,0,1,1.52-1.121c.941,0,1.4.783,1.4,1.664v2.4h-.835v-2.4c0-.415-.172-.813-.706-.813-.934,0-1.326,1.22-1.332,2.494v.723H138.2v-2.4c0-.393-.175-.813-.625-.813-.972,0-1.408,1.211-1.416,2.478v.737h-.83Zm7.984-5.678a.554.554,0,1,1-.578.557A.53.53,0,0,1,143.313,33.687ZM142.9,35.42h.874v3.945H142.9Zm1.943,3.945V35.42h.843v.971a1.64,1.64,0,0,1,1.468-1.091,1.581,1.581,0,0,1,1.55,1.664v2.4h-.829V36.986a.77.77,0,0,0-.822-.835c-.925,0-1.378,1.272-1.378,2.478v.737h-.833Zm8.15.008V38.59a1.808,1.808,0,0,1-1.583.865,1.92,1.92,0,0,1-1.989-2.025,1.95,1.95,0,0,1,2.011-2.131,1.9,1.9,0,0,1,1.566.9V33.575h.843v1.806a6.49,6.49,0,0,1-.234,2.025,7.1,7.1,0,0,1,.24,1.965h-.859Zm-1.545-3.252a1.176,1.176,0,0,0-1.167,1.3,1.192,1.192,0,0,0,1.143,1.228,1.572,1.572,0,0,0,1.364-1.241C152.591,36.814,152.124,36.121,151.447,36.121Z" transform="translate(-31.846 -7.095)" fill="#fff"/></svg>