<svg xmlns="http://www.w3.org/2000/svg" width="162.18" height="86.889" viewBox="0 0 162.18 86.889"><g transform="translate(0.5 0.5)"><g transform="translate(-137.797 -15.741)"><path d="M2347.978-1362.479H2186.8v-85.889h121.816v43.764h39.364v42.125Zm-72.678-41.188v40.259H2347v-40.264h-38.383v.006Zm-62.667,0v40.258h61.417v-40.258Zm-15.935,23.912a3.767,3.767,0,0,0-3.751,3.826v5.5H2204.3v-1.994h-3.991v-2.192c0-2.7,2.825-3,4.04-3v-2.146a5.782,5.782,0,0,0-4.566,1.732l-.164.2-.115-.215A3.111,3.111,0,0,0,2196.7-1379.755Zm3.151-9.6a4.272,4.272,0,0,0-4.465,4.155,4.257,4.257,0,0,0,4.465,4.334,4.383,4.383,0,0,0,4.649-4.4,4.779,4.779,0,0,0-1.514-3.591l-1.123,1.414a2.95,2.95,0,0,1,.908,2.158,2.452,2.452,0,0,1-2.131,2.461v-6.528Zm-2.468-9.164a4.055,4.055,0,0,0-1.993,3.53,4.368,4.368,0,0,0,4.615,4.3,4.2,4.2,0,0,0,4.515-4.35,4.121,4.121,0,0,0-1.717-3.446,5.8,5.8,0,0,1,.708-.046c2.01,0,3.116,1.151,3.116,3.242a5.433,5.433,0,0,1-.873,2.756l1.633.823a6.781,6.781,0,0,0,1.022-3.5c0-3.129-1.574-4.961-4.433-5.159-.223-.014-.449-.021-.672-.021a10.393,10.393,0,0,0-3.3.531,14.061,14.061,0,0,0-4.419-.51v1.844Zm-4.289-6.224a1.156,1.156,0,0,0-1.222,1.268,1.158,1.158,0,0,0,1.222,1.273,1.162,1.162,0,0,0,1.2-1.273A1.148,1.148,0,0,0,2193.091-1404.748Zm2.572.265v1.908h8.635v-1.908Zm16.969-42.9v42.731h94.995v-42.731Zm-12.654,31.82a4.557,4.557,0,0,0-4.631,4.58,4.591,4.591,0,0,0,4.631,4.649,4.56,4.56,0,0,0,4.634-4.584A4.59,4.59,0,0,0,2199.979-1415.564Zm-4.4-3.358v1.844h8.72v-1.829h-1.614a8.783,8.783,0,0,1-3.7-.749,2.586,2.586,0,0,1-1.725-2.267,1.686,1.686,0,0,1,1.833-1.8h5.209v-1.809h-5.255a3.449,3.449,0,0,0-3.645,3.4,3.546,3.546,0,0,0,2.388,3.216Zm1.8-16.021a4.014,4.014,0,0,0-1.977,3.431,4.341,4.341,0,0,0,4.664,4.4,4.3,4.3,0,0,0,4.45-4.35,3.911,3.911,0,0,0-1.913-3.465c.181-.015.28-.015.46-.015.24,0,.433,0,.619.008s.39.008.638.008v-1.874h-.014a14.89,14.89,0,0,0-4.29.524,14.158,14.158,0,0,0-4.435-.509v1.843Zm-5.757-5.48v1.843H2204.3v-1.843Zm6.762,68h-3.447v-3.51a1.8,1.8,0,0,1,1.76-1.829,1.7,1.7,0,0,1,1.688,1.829v3.509Zm.59-10.447h0a2.108,2.108,0,0,1-1.857-2.273,2.191,2.191,0,0,1,1.859-2.192v4.465Zm.994-9.686a2.61,2.61,0,0,1-2.752-2.626c0-1.553,1.751-2.586,2.786-2.951,1.268.413,2.748,1.456,2.748,3.036A2.641,2.641,0,0,1,2199.968-1392.552Zm.03-15.68a2.734,2.734,0,0,1-2.836-2.752,2.7,2.7,0,0,1,2.817-2.706,2.767,2.767,0,0,1,2.822,2.772A2.686,2.686,0,0,1,2200-1408.232Zm.054-20.759a2.586,2.586,0,0,1-2.855-2.557c0-1.409,1.417-2.49,2.821-2.936,1.321.429,2.732,1.439,2.732,2.986A2.611,2.611,0,0,1,2200.052-1428.99Z" transform="translate(-2049 1464.11)" fill="#1d1d1b" stroke="rgba(0,0,0,0)" stroke-miterlimit="10" stroke-width="1"/><path d="M2212.358-1424.559v-23.81h16.324v4.661h-11.491v5.1h10.215v4.213h-10.215v5.17h11.836v4.66Zm-25.561,0v-23.809h9.218c7.037,0,12.56,5.174,12.56,11.9s-5.523,11.905-12.56,11.905Zm4.833-4.661h4.385a7.374,7.374,0,0,0,7.692-7.244,7.353,7.353,0,0,0-7.692-7.244h-4.385Z" transform="translate(-2012.914 1516.355)" fill="#ff7d5a" stroke="rgba(0,0,0,0)" stroke-miterlimit="10" stroke-width="1"/><path d="M2207.5-1424.492v-12.8l-5.8,12.767h-3.9l-6.174-13.078v13.078H2186.8v-23.809h4.968l7.937,17.389,7.7-17.389h4.932v23.844Zm16.487-.033v-9.391l-9.283-14.453h5.765l5.929,10.038,6.043-10.038h5.692l-9.318,14.453v9.391Z" transform="translate(-1948.191 1516.323)" fill="#ffc600" stroke="rgba(0,0,0,0)" stroke-miterlimit="10" stroke-width="1"/><path d="M2212.358-1435.71c0-6.45,4.312-12.659,12.211-12.659a11.79,11.79,0,0,1,10.836,6.9l-4.416,2a6.99,6.99,0,0,0-6.421-4.208c-4.656,0-7.347,3.587-7.347,7.968,0,4.42,2.76,7.8,7.347,7.8a6.515,6.515,0,0,0,6.627-4.972l4.661,1.277a11.24,11.24,0,0,1-11.288,8.382C2217.325-1423.219,2212.358-1428.6,2212.358-1435.71Zm43.054,11.805-2.139-5.179h-9.938l-2.135,5.179h-5.213l10.111-23.81h4.449l10.142,23.81Zm-10.383-9.248h6.554l-3.277-7.9Zm-38.807,9.248-2.138-5.179h-9.938l-2.135,5.179H2186.8l10.111-23.81h4.45l10.141,23.81Zm-10.383-9.248h6.555l-3.277-7.9Z" transform="translate(-2014.62 1473.275)" fill="#1d1d1b" stroke="rgba(0,0,0,0)" stroke-miterlimit="10" stroke-width="1"/><rect width="161.184" height="85.889" transform="translate(137.798 15.742)" fill="none"/></g></g></svg>