<svg xmlns="http://www.w3.org/2000/svg" width="184.656" height="50.228" viewBox="0 0 184.656 50.228"><path d="M53.061,48.844H42.245v-33.1H53.061Zm1.218-42.22a6.624,6.624,0,1,0-6.624,6.624A6.624,6.624,0,0,0,54.279,6.624ZM86.872,45.119c.244-.219.69-.632,1.272-1.239a30.392,30.392,0,0,1,.4,4.968H99.365a40.2,40.2,0,0,0-3.51-16.532,40.421,40.421,0,0,0,3.51-16.565H88.549a30.171,30.171,0,0,1-.421,5.063c-.574-.591-1.02-1-1.268-1.222a17.252,17.252,0,0,0-24.618.136,17.885,17.885,0,0,0,0,25.267,17.252,17.252,0,0,0,24.631.124ZM79.352,27.377a3.812,3.812,0,0,0,.33.306,25.143,25.143,0,0,1,3.882,4.65,25.636,25.636,0,0,1-3.911,4.733,3.2,3.2,0,0,0-.3.281,6.469,6.469,0,0,1-9.462,0,7.054,7.054,0,0,1,0-9.97,6.464,6.464,0,0,1,9.457,0ZM115.071.215H104.255v48.63h10.816Zm-77.117,33.4A15.249,15.249,0,0,1,22.723,48.844H0V.215H21.818A14.486,14.486,0,0,1,33.671,23.037a15.173,15.173,0,0,1,4.283,10.581ZM21.818,11.031h-11v7.355h11a3.676,3.676,0,1,0,0-7.351Zm5.319,22.582A4.422,4.422,0,0,0,22.723,29.2H10.812v8.83H22.723A4.422,4.422,0,0,0,27.138,33.613Z" fill="#010202"/><path d="M114.312,26.23h1.4v3.238h.57a3.221,3.221,0,0,0,3.11-3.238h1.425a4.313,4.313,0,0,1-1.937,3.659L118.71,30l.181.091a4.417,4.417,0,0,1,2.2,3.977H119.61c0-1.743-.99-3.3-2.927-3.3h-.971v3.3h-1.4Zm12.757,5.3h-4.514a1.7,1.7,0,0,0,1.7,1.47,2.034,2.034,0,0,0,1.49-.628l.978.776a3.317,3.317,0,0,1-2.486,1.049,3.035,3.035,0,0,1-3.043-3.213,2.915,2.915,0,0,1,3-3.089,2.966,2.966,0,0,1,2.871,3.089v.545Zm-1.4-1.152a1.516,1.516,0,0,0-1.516-1.289,1.458,1.458,0,0,0-1.573,1.289Zm8.115,1.152H129.27a1.7,1.7,0,0,0,1.7,1.47,2.034,2.034,0,0,0,1.49-.628l.978.776a3.317,3.317,0,0,1-2.486,1.049,3.035,3.035,0,0,1-3.043-3.213,2.915,2.915,0,0,1,3-3.089,2.965,2.965,0,0,1,2.87,3.089v.545Zm-1.4-1.152a1.516,1.516,0,0,0-1.516-1.289,1.458,1.458,0,0,0-1.573,1.289Zm3.692-2.28v1.119a2.73,2.73,0,0,1,2.4-1.334,2.955,2.955,0,0,1,3,3.064,3.04,3.04,0,0,1-3.064,3.258,2.74,2.74,0,0,1-2.338-1.379v3.9H134.8V33.771a8.885,8.885,0,0,1,.343-2.759,9.759,9.759,0,0,1-.363-2.92h1.3Zm2.338,4.857a1.814,1.814,0,0,0,1.78-2.007,1.771,1.771,0,0,0-1.71-1.834,2.445,2.445,0,0,0-2.1,1.9C136.683,31.826,137.39,32.954,138.414,32.954Zm5.133-7.488a.839.839,0,1,1-.876.843A.8.8,0,0,1,143.547,25.466Zm-.628,2.631h1.322l-.009,5.972h-1.321Zm2.941,5.972V28.1h1.276v1.47a2.482,2.482,0,0,1,2.222-1.652,2.392,2.392,0,0,1,2.345,2.519v3.634h-1.255v-3.6a1.165,1.165,0,0,0-1.244-1.264c-1.4,0-2.086,1.924-2.086,3.75v1.115h-1.26Zm8.211,1a3.735,3.735,0,0,0,1.9.6c1.71,0,2.4-1.082,2.21-2.643a2.845,2.845,0,0,1-2.384,1.185,2.9,2.9,0,0,1-3.01-3.122,3.008,3.008,0,0,1,2.973-3.192,2.8,2.8,0,0,1,2.442,1.379V28.1h1.275a9.585,9.585,0,0,1-.355,2.99,7.282,7.282,0,0,1,.355,2.746c-.135,1.962-1.354,3.064-3.568,3.064a4.7,4.7,0,0,1-2.415-.706l.57-1.128Zm1.821-5.906a1.809,1.809,0,0,0-1.814,1.9,1.828,1.828,0,0,0,1.756,1.925,2.445,2.445,0,0,0,2.1-1.9C157.647,30.273,156.916,29.158,155.892,29.158ZM114.315,46.5V37.74h1.276V46.5Zm3.556-8.594a.839.839,0,1,1-.876.843A.8.8,0,0,1,117.872,37.909Zm-.628,2.623h1.321V46.5h-1.321Zm3.51,5.972v-4.91H119.8V40.532h.959v-.549a2.132,2.132,0,0,1,2.118-2.358,2.819,2.819,0,0,1,1.594.537l-.739.979a1.493,1.493,0,0,0-.842-.273c-.8,0-.868.694-.868,1.231l.013.434h1.437v1.061h-1.437V46.5Zm9.3-2.527h-4.514a1.7,1.7,0,0,0,1.7,1.47,2.034,2.034,0,0,0,1.49-.628l.979.776a3.318,3.318,0,0,1-2.486,1.049,3.035,3.035,0,0,1-3.044-3.213,2.915,2.915,0,0,1,3-3.089,2.965,2.965,0,0,1,2.871,3.089v.545Zm-1.4-1.152a1.514,1.514,0,0,0-1.516-1.288,1.46,1.46,0,0,0-1.573,1.288Zm5.7-4.915a.839.839,0,1,1-.876.843A.8.8,0,0,1,134.358,37.909Zm-.628,2.623h1.321V46.5h-1.321Zm2.941,5.972V40.532h1.276V42a2.48,2.48,0,0,1,2.221-1.652,2.393,2.393,0,0,1,2.347,2.519V46.5h-1.256V42.9a1.165,1.165,0,0,0-1.244-1.264c-1.4,0-2.086,1.925-2.086,3.75V46.5h-1.259Zm9.453,0V40.532h1.264v1.5a2.5,2.5,0,0,1,2.222-1.685,2.086,2.086,0,0,1,2.028,1.7,2.5,2.5,0,0,1,2.3-1.7c1.424,0,2.118,1.185,2.118,2.519V46.5h-1.264V42.87c0-.628-.26-1.231-1.069-1.231-1.413,0-2.007,1.846-2.016,3.775v1.094h-1.243V42.874c0-.595-.264-1.231-.946-1.231-1.471,0-2.131,1.834-2.143,3.75v1.115H146.12Zm12.084-8.594a.839.839,0,1,1-.875.843A.8.8,0,0,1,158.208,37.909Zm-.628,2.623H158.9V46.5H157.58Zm2.941,5.972V40.532H161.8V42a2.482,2.482,0,0,1,2.222-1.652,2.392,2.392,0,0,1,2.345,2.519V46.5H165.11V42.9a1.165,1.165,0,0,0-1.244-1.264c-1.4,0-2.086,1.925-2.086,3.75V46.5h-1.26Zm12.336.012V45.331a2.737,2.737,0,0,1-2.4,1.309,2.906,2.906,0,0,1-3.01-3.064A2.952,2.952,0,0,1,170.5,40.35a2.871,2.871,0,0,1,2.371,1.367V37.74h1.275v2.734a9.823,9.823,0,0,1-.355,3.064,10.746,10.746,0,0,1,.364,2.973h-1.3Zm-2.338-4.923a1.78,1.78,0,0,0-1.767,1.97,1.8,1.8,0,0,0,1.73,1.858,2.38,2.38,0,0,0,2.065-1.879C172.25,42.642,171.543,41.593,170.519,41.593Z" transform="translate(10.506 2.341)" fill="#010202"/></svg>