<svg xmlns="http://www.w3.org/2000/svg" width="29" height="32" viewBox="0 0 29 32"><g transform="translate(-3.5 -2)"><path d="M7.5,5h21a4,4,0,0,1,4,4V30a4,4,0,0,1-4,4H7.5a4,4,0,0,1-4-4V9A4,4,0,0,1,7.5,5Zm21,27a2,2,0,0,0,2-2V9a2,2,0,0,0-2-2H7.5a2,2,0,0,0-2,2V30a2,2,0,0,0,2,2Z" fill="#010202"/><path d="M24,10a1,1,0,0,1-1-1V3a1,1,0,0,1,2,0V9A1,1,0,0,1,24,10Z" fill="#010202"/><path d="M12,10a1,1,0,0,1-1-1V3a1,1,0,0,1,2,0V9A1,1,0,0,1,12,10Z" fill="#010202"/><path d="M31.5,16H4.5a1,1,0,0,1,0-2h27a1,1,0,0,1,0,2Z" fill="#010202"/></g></svg>