<svg xmlns="http://www.w3.org/2000/svg" xmlns:xlink="http://www.w3.org/1999/xlink" width="32" height="32" viewBox="0 0 32 32"><defs><clipPath id="a"><rect width="26.023" height="28.782"/></clipPath></defs><g transform="translate(-308 -1043)"><g transform="translate(311 1045)"><g clip-path="url(#a)"><path d="M13.03,0a11.083,11.083,0,0,1,7.625,3.013A10.934,10.934,0,0,1,24.139,9.75,10.982,10.982,0,0,1,22.972,16.4a.385.385,0,0,0-.02.361q1.5,3.73,3,7.465a.916.916,0,0,1-.958,1.286q-2.107-.183-4.212-.384a.345.345,0,0,0-.332.139q-1.367,1.589-2.748,3.166a.917.917,0,0,1-1.595-.276q-1.12-2.768-2.217-5.545a.242.242,0,0,0-.3-.183,5.342,5.342,0,0,1-1.107,0,.3.3,0,0,0-.372.227q-1.079,2.75-2.179,5.492a.928.928,0,0,1-1.594.291q-1.4-1.6-2.795-3.206a.275.275,0,0,0-.264-.108q-1.942.187-3.884.364a3.382,3.382,0,0,1-.511.027.915.915,0,0,1-.8-1.287c.375-.948.756-1.893,1.134-2.839q.931-2.334,1.865-4.668a.352.352,0,0,0-.017-.326,10.919,10.919,0,0,1-1.238-4.538,10.988,10.988,0,0,1,3.108-8.4,10.966,10.966,0,0,1,6.3-3.315A9.877,9.877,0,0,1,13.03,0m9.363,11.226A9.377,9.377,0,1,0,12.818,20.6a9.375,9.375,0,0,0,9.575-9.372M2.34,23.528c.08,0,.127,0,.174,0,.947-.089,1.895-.167,2.839-.272a1.25,1.25,0,0,1,1.244.377c.506.612,1.038,1.2,1.56,1.8.192.22.386.437.587.665.025-.046.04-.068.05-.093q.749-1.876,1.5-3.751c.05-.124,0-.142-.107-.169a11.151,11.151,0,0,1-5.029-2.853c-.263-.257-.508-.533-.776-.816L2.34,23.528m19.279-5.146a.826.826,0,0,1-.062.117,11.14,11.14,0,0,1-5.72,3.586c-.132.035-.156.075-.1.2.491,1.21.975,2.424,1.462,3.636.021.053.048.1.08.17.062-.069.109-.118.153-.169q1.033-1.185,2.065-2.371a.9.9,0,0,1,.765-.33c.723.053,1.445.134,2.167.2.408.038.816.073,1.262.113l-2.068-5.158" transform="translate(0 0)"/><path d="M184.369,145.584a11.637,11.637,0,0,1,.264-1.319c.053-.268.116-.535.185-.8a.248.248,0,0,0-.1-.283c-.462-.4-.925-.794-1.376-1.2a1.465,1.465,0,0,1,.387-2.46,2.339,2.339,0,0,1,.722-.14q.777-.071,1.554-.136a.28.28,0,0,0,.271-.2c.238-.582.475-1.165.743-1.735a1.457,1.457,0,0,1,2.664.056c.236.553.479,1.1.707,1.661a.308.308,0,0,0,.3.219c.6.048,1.2.1,1.8.166a1.386,1.386,0,0,1,1.228.949,1.36,1.36,0,0,1-.344,1.547c-.459.441-.948.851-1.431,1.266a.272.272,0,0,0-.1.318c.139.578.264,1.16.39,1.741a1.4,1.4,0,0,1-.557,1.542,1.425,1.425,0,0,1-1.676.048c-.512-.3-1.025-.606-1.532-.917a.24.24,0,0,0-.293,0c-.537.328-1.072.661-1.623.966a1.463,1.463,0,0,1-2.157-1,2.864,2.864,0,0,1-.031-.293m7.076-4.422c-.408-.038-.76-.085-1.113-.1a1.526,1.526,0,0,1-1.532-1.073c-.126-.357-.3-.7-.461-1.081-.191.445-.362.86-.547,1.27a1.359,1.359,0,0,1-1.168.846c-.286.029-.572.054-.858.082-.17.017-.34.038-.549.062.363.319.693.606,1.02.9a1.379,1.379,0,0,1,.483,1.306c-.022.148-.066.293-.1.441-.065.317-.161.629-.2.958a.444.444,0,0,0,.241-.1c.312-.184.622-.373.934-.557a1.38,1.38,0,0,1,.683-.192,1.494,1.494,0,0,1,.837.231c.364.222.733.437,1.133.676-.051-.237-.092-.43-.135-.622-.058-.26-.129-.518-.177-.779a1.357,1.357,0,0,1,.436-1.321c.338-.308.685-.606,1.065-.941" transform="translate(-175.316 -130.855)"/></g></g><rect width="32" height="32" transform="translate(308 1043)" fill="none"/></g></svg>