<svg xmlns="http://www.w3.org/2000/svg" width="32" height="32" viewBox="0 0 32 32"><g transform="translate(1 1)"><path d="M18,2A16,16,0,0,1,29.314,29.314,16,16,0,0,1,6.686,6.686,15.9,15.9,0,0,1,18,2Zm0,30A14,14,0,1,0,4,18,14.016,14.016,0,0,0,18,32Z" transform="translate(-3 -3)" fill="#010202"/><path d="M24,25a1,1,0,0,1-.707-.293L18,19.414l-5.293,5.293a1,1,0,0,1-1.414-1.414l6-6a1,1,0,0,1,1.414,0l6,6A1,1,0,0,1,24,25Z" transform="translate(-3 -9)" fill="#010202"/><path d="M18,25a1,1,0,0,1-1-1V12a1,1,0,0,1,2,0V24A1,1,0,0,1,18,25Z" transform="translate(-3 -3)" fill="#010202"/></g></svg>