<svg xmlns="http://www.w3.org/2000/svg" width="26" height="32" viewBox="0 0 26 32"><g transform="translate(-5 -2)"><path d="M9,2H21a1,1,0,0,1,.707.293l9,9A1,1,0,0,1,31,12V30a4,4,0,0,1-4,4H9a4,4,0,0,1-4-4V6A4,4,0,0,1,9,2ZM20.586,4H9A2,2,0,0,0,7,6V30a2,2,0,0,0,2,2H27a2,2,0,0,0,2-2V12.414Z" fill="#010202"/><path d="M30,13H21a1,1,0,0,1-1-1V3a1,1,0,0,1,2,0v8h8a1,1,0,0,1,0,2Z" fill="#010202"/><path d="M24,20.5H12a1,1,0,0,1,0-2H24a1,1,0,0,1,0,2Z" fill="#010202"/><path d="M24,26.5H12a1,1,0,0,1,0-2H24a1,1,0,0,1,0,2Z" fill="#010202"/><path d="M15,14.5H12a1,1,0,0,1,0-2h3a1,1,0,0,1,0,2Z" fill="#010202"/></g></svg>