<svg xmlns="http://www.w3.org/2000/svg" width="17.549" height="14.721" viewBox="0 0 17.549 14.721"><g transform="translate(-0.486 -3.482)"><path d="M14.825,29.325a1,1,0,0,1-.707-.293l-2.825-2.825a1,1,0,0,1,1.414-1.414l2.118,2.118,2.118-2.118a1,1,0,0,1,1.414,1.414l-2.825,2.825A1,1,0,0,1,14.825,29.325Z" transform="translate(-5.564 -11.122)"/><path d="M18,25.356a1,1,0,0,1-1-1V18a1,1,0,1,1,2,0v6.356A1,1,0,0,1,18,25.356Z" transform="translate(-8.739 -7.153)"/><path d="M15.533,16.148a1,1,0,0,1-.576-1.818,2.531,2.531,0,0,0-1.458-4.6h-.891a1,1,0,0,1-.969-.751,4.65,4.65,0,1,0-7.986,4.237,1,1,0,1,1-1.5,1.325,6.65,6.65,0,1,1,11.18-6.811H13.5a4.531,4.531,0,0,1,2.609,8.238A1,1,0,0,1,15.533,16.148Z" transform="translate(0 0)"/></g></svg>