<svg xmlns="http://www.w3.org/2000/svg" xmlns:xlink="http://www.w3.org/1999/xlink" width="312.729" height="95.88" viewBox="0 0 312.729 95.88"><defs><clipPath id="a"><path d="M3.26,37.44c5.45-.37,11.82-3.12,14.21-9.53a17.251,17.251,0,0,1-5-.98,12.97,12.97,0,0,1-4.93-3.14c-3.69-3.67-4.4-8.75-1.8-12.97a10.417,10.417,0,0,1,12.08-4.6,12.5,12.5,0,0,1,7.65,7.93,17.234,17.234,0,0,1,.89,5.22C33.8,17.17,36.39,9.98,36.29,4l7.97-.14v.58c0,13.94-9.02,21.58-18.43,23.21C23.39,39,13.11,44.74,3.61,45.39l-.34-7.95ZM18.39,19.98a10.476,10.476,0,0,0-.45-3.17,4.6,4.6,0,0,0-2.73-3.06A2.46,2.46,0,0,0,12.52,15c-.65,1.06-.43,2.1.68,3.18l.28.28a6.07,6.07,0,0,0,1.8,1.01,10.632,10.632,0,0,0,3.11.51Z" fill="none"/></clipPath><filter id="b" x="-9.08" y="22.355" width="37.51" height="31.774" filterUnits="userSpaceOnUse"><feOffset dx="2.83" dy="-2.83" input="SourceAlpha"/><feGaussianBlur stdDeviation="3.97" result="c"/><feFlood flood-opacity="0.922"/><feComposite operator="in" in2="c"/><feComposite in="SourceGraphic"/></filter><clipPath id="d"><path d="M36.84,78.42c-.37-5.45-3.12-11.82-9.53-14.21a17.251,17.251,0,0,1-.98,5,12.969,12.969,0,0,1-3.14,4.93c-3.67,3.69-8.75,4.4-12.97,1.8a10.417,10.417,0,0,1-4.6-12.08,12.5,12.5,0,0,1,7.93-7.65,17.234,17.234,0,0,1,5.22-.89c-2.2-7.44-9.39-10.03-15.37-9.93l-.14-7.97h.58c13.94,0,21.58,9.02,23.21,18.43C38.4,58.29,44.14,68.57,44.79,78.07l-7.95.34ZM19.38,63.29a10.476,10.476,0,0,0-3.17.45,4.6,4.6,0,0,0-3.06,2.73,2.46,2.46,0,0,0,1.25,2.69c1.06.65,2.1.43,3.18-.68l.28-.28a6.07,6.07,0,0,0,1.01-1.8,10.632,10.632,0,0,0,.51-3.11Z" fill="none"/></clipPath><filter id="e" x="25.076" y="53.08" width="24.934" height="30.67" filterUnits="userSpaceOnUse"><feOffset dy="-2.83" input="SourceAlpha"/><feGaussianBlur stdDeviation="2.83" result="f"/><feFlood flood-opacity="0.329"/><feComposite operator="in" in2="f"/><feComposite in="SourceGraphic"/></filter><clipPath id="g"><path d="M44.24,3.85c.37,5.45,3.12,11.82,9.53,14.21a17.251,17.251,0,0,1,.98-5,12.97,12.97,0,0,1,3.14-4.93c3.67-3.69,8.75-4.4,12.97-1.8a10.417,10.417,0,0,1,4.6,12.08,12.5,12.5,0,0,1-7.93,7.65,17.234,17.234,0,0,1-5.22.89c2.2,7.44,9.39,10.03,15.37,9.93l.14,7.97h-.58c-13.94,0-21.58-9.02-23.21-18.43C42.68,23.98,36.94,13.7,36.29,4.2l7.95-.34ZM61.7,18.98a10.476,10.476,0,0,0,3.17-.45,4.6,4.6,0,0,0,3.06-2.73,2.46,2.46,0,0,0-1.25-2.69c-1.06-.65-2.1-.43-3.18.68l-.28.28a6.07,6.07,0,0,0-1.01,1.8,10.632,10.632,0,0,0-.51,3.11Z" fill="none"/></clipPath><filter id="h" x="24.55" y="-2.13" width="24.934" height="30.67" filterUnits="userSpaceOnUse"><feOffset dy="2.83" input="SourceAlpha"/><feGaussianBlur stdDeviation="2.83" result="i"/><feFlood flood-opacity="0.322"/><feComposite operator="in" in2="i"/><feComposite in="SourceGraphic"/></filter><clipPath id="j"><path d="M78.03,44.84c-5.45.37-12.02,3.12-14.41,9.53a17.251,17.251,0,0,1,5,.98,12.969,12.969,0,0,1,4.93,3.14c3.69,3.67,4.4,8.75,1.8,12.97a10.417,10.417,0,0,1-12.08,4.6,12.5,12.5,0,0,1-7.65-7.93,17.234,17.234,0,0,1-.89-5.22c-7.44,2.2-10.03,9.39-9.93,15.37l-7.97.14v-.58c0-13.94,9.02-21.58,18.43-23.21C57.7,43.28,67.98,37.54,77.48,36.89l.54,7.95ZM62.69,62.3a10.476,10.476,0,0,0,.45,3.17,4.6,4.6,0,0,0,2.73,3.06,2.46,2.46,0,0,0,2.69-1.25c.65-1.06.43-2.1-.68-3.18l-.28-.28a6.07,6.07,0,0,0-1.8-1.01,10.632,10.632,0,0,0-3.11-.51Z" fill="none"/></clipPath><filter id="k" x="53.8" y="29.5" width="30.871" height="24.935" filterUnits="userSpaceOnUse"><feOffset dx="1.42" dy="1.42" input="SourceAlpha"/><feGaussianBlur stdDeviation="2.83" result="l"/><feFlood flood-opacity="0.251"/><feComposite operator="in" in2="l"/><feComposite in="SourceGraphic"/></filter><clipPath id="m"><rect width="10.64" height="16.4" transform="translate(34.97 2.58)" fill="none"/></clipPath><linearGradient id="n" x1="-0.047" y1="0.936" x2="0.947" y2="-0.019" gradientUnits="objectBoundingBox"><stop offset="0.21" stop-color="#07b6d4"/><stop offset="0.45" stop-color="#1b3f7e"/></linearGradient><linearGradient id="o" x1="-0.053" y1="0.903" x2="0.689" y2="-0.054" gradientUnits="objectBoundingBox"><stop offset="0" stop-color="#07b6d4"/><stop offset="0.3" stop-color="#07b6d4"/><stop offset="0.46" stop-color="#1b3f7e"/></linearGradient></defs><g transform="translate(-3.26 -0.33)"><path d="M3.6,45.39l-.34-7.95c5.45-.37,11.82-3.12,14.21-9.53a16.943,16.943,0,0,1-5-.99,12.97,12.97,0,0,1-4.93-3.14c-3.69-3.68-4.4-8.76-1.8-12.97a10.417,10.417,0,0,1,12.08-4.6,12.5,12.5,0,0,1,7.65,7.93,17.6,17.6,0,0,1,.89,5.22c7.44-2.2,10.04-9.4,9.93-15.37l7.97-.14c.26,14.31-8.88,22.14-18.42,23.79C23.4,39,13.12,44.74,3.62,45.39Zm9.87-26.93a6.032,6.032,0,0,0,1.81,1.01,10.632,10.632,0,0,0,3.11.51,10.594,10.594,0,0,0-.45-3.18,4.581,4.581,0,0,0-2.73-3.05,2.467,2.467,0,0,0-2.69,1.24c-.65,1.06-.43,2.1.68,3.18l.28.28Z" fill="#1d3e80"/><g clip-path="url(#a)"><g transform="matrix(1, 0, 0, 1, 3.26, 0.33)" filter="url(#b)"><path d="M16.95,40.82A25.092,25.092,0,0,0,3.32,37.43H3.26l.34,7.95a26.95,26.95,0,0,0,13.35-4.57Z" transform="translate(-3.26 -0.33)" fill="#0eb7d5"/></g></g><path d="M36.84,78.42c-.37-5.45-3.12-11.82-9.53-14.21a17.251,17.251,0,0,1-.98,5,12.969,12.969,0,0,1-3.14,4.93c-3.67,3.69-8.75,4.4-12.97,1.8a10.417,10.417,0,0,1-4.6-12.08,12.5,12.5,0,0,1,7.93-7.65,17.234,17.234,0,0,1,5.22-.89c-2.2-7.44-9.39-10.03-15.37-9.93l-.14-7.97h.58c13.94,0,21.58,9.02,23.21,18.43C38.4,58.29,44.14,68.57,44.79,78.07l-7.95.34ZM19.38,63.29a10.476,10.476,0,0,0-3.17.45,4.6,4.6,0,0,0-3.06,2.73,2.46,2.46,0,0,0,1.25,2.69c1.06.65,2.1.43,3.18-.68l.28-.28a6.07,6.07,0,0,0,1.01-1.8,10.632,10.632,0,0,0,.51-3.11Z" fill="#0eb7d5"/><path d="M93.11,87.44h2.6a3.716,3.716,0,1,1,0,7.43h-2.6V87.45Zm2.6,6.77a3.052,3.052,0,1,0,0-6.1H93.78v6.1h1.93Z" fill="#1d3e80"/><path d="M101.09,87.45h.67v7.41h-.67Z" fill="#1d3e80"/><path d="M103.67,87.45h5.17v.67h-4.5v2.71h3.94v.67h-3.94v3.37h-.67V87.46Z" fill="#1d3e80"/><path d="M110.15,87.45h5.17v.67h-4.5v2.71h3.94v.67h-3.94v3.37h-.67V87.46Z" fill="#1d3e80"/><path d="M116.52,87.45h5.18v.67h-4.51v2.71h3.95v.67h-3.95v2.71h4.51v.67h-5.18V87.47Z" fill="#1d3e80"/><path d="M127.03,91.83a3.44,3.44,0,0,1,1.65,3.06h-.67a2.71,2.71,0,0,0-2.77-2.93h-1.5v2.92h-.67V87.46h3.23a2.226,2.226,0,0,1,.72,4.37Zm-.72-.54a1.589,1.589,0,1,0,0-3.17h-2.57v3.17Z" fill="#1d3e80"/><path d="M130.07,87.45h5.18v.67h-4.51v2.71h3.95v.67h-3.95v2.71h4.51v.67h-5.18V87.47Z" fill="#1d3e80"/><path d="M136.62,87.45h.67l4.55,6.25V87.45h.67v7.41h-.66l-4.57-6.25v6.25h-.67V87.45Z" fill="#1d3e80"/><path d="M146.36,88.1h-2.62v-.64h5.9v.64h-2.61v6.77h-.67Z" fill="#1d3e80"/><path d="M153.23,87.44h3.37a2.088,2.088,0,0,1,2.2,2.01,1.961,1.961,0,0,1-.77,1.55,1.943,1.943,0,0,1,1.31,1.84,2.116,2.116,0,0,1-2.27,2.05h-3.85V87.45Zm3.38,3.37a1.357,1.357,0,1,0,0-2.69H153.9v2.7h2.71Zm.47,3.41a1.391,1.391,0,1,0,0-2.75H153.9v2.75Z" fill="#1d3e80"/><path d="M163.61,91.6v3.28h-.67V91.61l-2.81-4.16h.83l2.32,3.46,2.34-3.46h.82l-2.82,4.15Z" fill="#1d3e80"/><path d="M170.13,87.45h.67l4.55,6.25V87.45h.67v7.41h-.66l-4.57-6.25v6.25h-.67V87.45Z" fill="#1d3e80"/><path d="M182.78,92.77h-3.87l-.9,2.09h-.72l3.28-7.4h.56l3.28,7.4h-.73l-.89-2.09Zm-.28-.63-1.65-3.65-1.67,3.65h3.32Z" fill="#1d3e80"/><path d="M186.62,88.1H184v-.64h5.9v.64h-2.61v6.77h-.67Z" fill="#1d3e80"/><path d="M196.63,92.4a2.84,2.84,0,0,1-5.67,0V87.46h.67V92.4a2.169,2.169,0,0,0,4.33,0V87.46h.67Z" fill="#1d3e80"/><path d="M202.43,91.83a3.44,3.44,0,0,1,1.65,3.06h-.67a2.71,2.71,0,0,0-2.77-2.93h-1.5v2.92h-.67V87.46h3.23a2.226,2.226,0,0,1,.72,4.37Zm-.72-.54a1.589,1.589,0,1,0,0-3.17h-2.57v3.17Z" fill="#1d3e80"/><path d="M205.47,87.45h5.18v.67h-4.51v2.71h3.95v.67h-3.95v2.71h4.51v.67h-5.18V87.47Z" fill="#1d3e80"/><path d="M213.04,94.56l-1.01,1.65h-.67l.86-1.65h.82Z" fill="#1d3e80"/><path d="M217.08,87.44h2.6a3.716,3.716,0,1,1,0,7.43h-2.6V87.45Zm2.6,6.77a3.052,3.052,0,1,0,0-6.1h-1.93v6.1h1.93Z" fill="#1d3e80"/><path d="M229.01,91.83a3.44,3.44,0,0,1,1.65,3.06h-.67a2.71,2.71,0,0,0-2.77-2.93h-1.5v2.92h-.67V87.46h3.23a2.226,2.226,0,0,1,.72,4.37Zm-.72-.54a1.589,1.589,0,1,0,0-3.17h-2.57v3.17Z" fill="#1d3e80"/><path d="M232.16,87.45h.67v7.41h-.67Z" fill="#1d3e80"/><path d="M237.59,94.88h-.57l-3.03-7.42h.7l2.62,6.35,2.61-6.35h.71Z" fill="#1d3e80"/><path d="M241.58,87.45h5.18v.67h-4.51v2.71h3.95v.67h-3.95v2.71h4.51v.67h-5.18V87.47Z" fill="#1d3e80"/><path d="M248.13,87.45h.67l4.55,6.25V87.45h.67v7.41h-.66l-4.57-6.25v6.25h-.67V87.45Z" fill="#1d3e80"/><path d="M258.4,87.44h3.37a2.088,2.088,0,0,1,2.2,2.01A1.961,1.961,0,0,1,263.2,91a1.943,1.943,0,0,1,1.31,1.84,2.116,2.116,0,0,1-2.27,2.05h-3.85V87.45Zm3.37,3.37a1.357,1.357,0,1,0,0-2.69h-2.71v2.7h2.71Zm.47,3.41a1.391,1.391,0,1,0,0-2.75h-3.18v2.75Z" fill="#1d3e80"/><path d="M268.77,91.6v3.28h-.67V91.61l-2.81-4.16h.83l2.32,3.46,2.34-3.46h.82Z" fill="#1d3e80"/><path d="M278.55,87.45a2.257,2.257,0,1,1,0,4.51h-2.58v2.91h-.67V87.46h3.24Zm0,3.84a1.588,1.588,0,1,0,0-3.17h-2.58v3.17Z" fill="#1d3e80"/><path d="M282,87.45h5.18v.67h-4.51v2.71h3.95v.67h-3.95v2.71h4.51v.67H282V87.47Z" fill="#1d3e80"/><path d="M291.97,87.24a3.93,3.93,0,1,1-3.91,3.93A3.957,3.957,0,0,1,291.97,87.24Zm0,.67a3.27,3.27,0,1,0,3.23,3.27A3.265,3.265,0,0,0,291.97,87.91Z" fill="#1d3e80"/><path d="M300.68,87.45a2.257,2.257,0,1,1,0,4.51H298.1v2.91h-.67V87.46h3.24Zm0,3.84a1.588,1.588,0,1,0,0-3.17H298.1v3.17Z" fill="#1d3e80"/><path d="M304.9,94.2h4.01v.67h-4.67V87.46h.67v6.75Z" fill="#1d3e80"/><path d="M310.09,87.45h5.18v.67h-4.51v2.71h3.95v.67h-3.95v2.71h4.51v.67h-5.18V87.47Z" fill="#1d3e80"/><g clip-path="url(#d)"><g transform="matrix(1, 0, 0, 1, 3.26, 0.33)" filter="url(#e)"><path d="M40.22,64.73a25.092,25.092,0,0,0-3.39,13.63v.06h0l7.95-.34a26.95,26.95,0,0,0-4.57-13.35Z" transform="translate(-3.26 -0.33)" fill="#fbbe0a"/></g></g><path d="M36.84,78.42c-.26-14.31,8.88-22.14,18.42-23.79C57.7,43.27,67.99,37.54,77.48,36.88l.54,7.95c-5.45.37-12.02,3.12-14.41,9.53a16.943,16.943,0,0,1,5,.99,12.969,12.969,0,0,1,4.93,3.14c3.69,3.68,4.4,8.75,1.8,12.97a10.417,10.417,0,0,1-12.08,4.6,12.481,12.481,0,0,1-7.65-7.93,17.234,17.234,0,0,1-.89-5.22c-7.44,2.2-10.04,9.4-9.93,15.37l-7.97.14ZM62.69,62.3a10.476,10.476,0,0,0,.45,3.17,4.576,4.576,0,0,0,2.73,3.06,2.467,2.467,0,0,0,2.69-1.24c.65-1.06.43-2.1-.68-3.18l-.28-.28a5.809,5.809,0,0,0-1.81-1.01,10.632,10.632,0,0,0-3.11-.51Z" fill="#fbbe0a"/><path d="M77.24,44.85c-13.94,0-21.58-9.02-23.21-18.43C42.67,23.98,36.94,13.7,36.29,4.2l7.95-.34c.37,5.45,3.12,11.82,9.53,14.21a16.943,16.943,0,0,1,.99-5A12.97,12.97,0,0,1,57.9,8.14c3.68-3.69,8.75-4.4,12.97-1.8a10.417,10.417,0,0,1,4.6,12.08,12.5,12.5,0,0,1-7.93,7.65,17.286,17.286,0,0,1-5.22.89c2.16,7.29,9.12,9.94,15.02,9.94h.15l.34,7.97h-.58ZM63.22,14.07a5.809,5.809,0,0,0-1.01,1.81,10.632,10.632,0,0,0-.51,3.11,10.476,10.476,0,0,0,3.17-.45,4.6,4.6,0,0,0,3.06-2.73,2.467,2.467,0,0,0-1.24-2.69c-1.06-.65-2.1-.43-3.18.68l-.28.28Z" fill="#ed7153"/><g clip-path="url(#g)"><g transform="matrix(1, 0, 0, 1, 3.26, 0.33)" filter="url(#h)"><path d="M40.86,17.55A25.092,25.092,0,0,0,44.25,3.92V3.86h0L36.3,4.2a26.95,26.95,0,0,0,4.57,13.35Z" transform="translate(-3.26 -0.33)" fill="#1d3e80"/></g></g><g clip-path="url(#j)"><g transform="matrix(1, 0, 0, 1, 3.26, 0.33)" filter="url(#k)"><path d="M64.13,41.46a26.064,26.064,0,0,0,13.89,3.39h0l-.54-7.95a26.95,26.95,0,0,0-13.35,4.57Z" transform="translate(-3.26 -0.33)" fill="#ed7153"/></g></g><g clip-path="url(#m)"><path d="M3.6,45.39l-.34-7.95c5.45-.37,11.82-3.12,14.21-9.53a16.943,16.943,0,0,1-5-.99,12.97,12.97,0,0,1-4.93-3.14c-3.69-3.68-4.4-8.76-1.8-12.97a10.417,10.417,0,0,1,12.08-4.6,12.5,12.5,0,0,1,7.65,7.93,17.6,17.6,0,0,1,.89,5.22c7.44-2.2,10.04-9.4,9.93-15.37l7.97-.14c.26,14.31-8.88,22.14-18.42,23.79C23.4,39,13.12,44.74,3.62,45.39Zm9.87-26.93a6.032,6.032,0,0,0,1.81,1.01,10.632,10.632,0,0,0,3.11.51,10.594,10.594,0,0,0-.45-3.18,4.581,4.581,0,0,0-2.73-3.05,2.467,2.467,0,0,0-2.69,1.24c-.65,1.06-.43,2.1.68,3.18l.28.28Z" fill="#1d3e80"/></g><path d="M92.65,77.79V44.19h6.68l12.43,25.98,12.07-25.98h6.58V77.84h-6.27V57.47l-9.69,20.32h-5.23L98.97,57.03V77.79H92.65Z" fill="#0eb8d5"/><path d="M159.21,77.84c0-1.47.05-2.3.05-3.71a12.546,12.546,0,0,0-.05-1.37,11.536,11.536,0,0,1-10.26,5.66c-7.47,0-12.89-5.71-12.89-13.19,0-7.91,5.13-13.82,13.04-13.82a11.913,11.913,0,0,1,10.16,5.86V51.95h5.47c0,4.25-.1,8.74-1.51,13.14a44.755,44.755,0,0,1,1.56,12.75ZM149.2,56.74c-4.93,0-7.57,3.86-7.57,8.45,0,4.25,3.22,8.01,7.42,8.01,4.54,0,7.52-4.05,8.84-8.11-1.22-3.86-4.3-8.35-8.69-8.35Z" fill="#0eb8d5"/><path d="M171.74,77.79V52.15h5.47v6.3c1.71-3.61,5.13-7.03,10.06-7.03v6.15c-8.69,0-10.11,8.64-10.11,15.43v4.79Z" fill="#0eb8d5"/><path d="M246.07,66.95H226.73c.88,3.66,3.22,6.3,7.28,6.3a8.724,8.724,0,0,0,6.4-2.69l4.2,3.32a14.2,14.2,0,0,1-10.65,4.49c-7.77,0-13.04-6.06-13.04-13.77s5.23-13.24,12.84-13.24c7.18,0,12.31,6.2,12.31,13.24v2.34Zm-6.01-4.93c-.83-3.22-2.88-5.52-6.5-5.52-3.86,0-5.96,1.95-6.74,5.52h13.23Z" fill="#0eb8d5"/><path d="M266.97,76.37a10.577,10.577,0,0,1-6.2,2.34,7.73,7.73,0,0,1-7.86-7.96V56.44H249V51.95h3.91V44.33h5.42v7.62h7.57v4.49h-7.57V70.8a2.662,2.662,0,0,0,2.83,2.73,5.677,5.677,0,0,0,3.08-1.12l2.73,3.96Z" fill="#0eb8d5"/><path d="M274.45,70.76a11.292,11.292,0,0,0,7.52,3.08c1.61,0,5.08-.49,5.08-2.64,0-1.32-1.32-2.05-2.64-2.59-1.42-.59-3.32-1.07-5.18-1.71-3.76-1.37-7.18-3.32-7.18-7.91,0-5.32,4.69-7.91,9.62-7.91a14.352,14.352,0,0,1,10.01,3.91l-3.91,3.81a9.1,9.1,0,0,0-6.1-2.44c-1.51,0-4.2.44-4.2,2.44,0,1.37,1.32,2.05,2.69,2.59l5.18,1.71c3.71,1.32,7.18,3.32,7.18,8.11,0,5.37-5.62,7.91-10.55,7.91a16.105,16.105,0,0,1-11.28-4.4l3.76-3.96Z" fill="#0eb8d5"/><path d="M193.12,77.84V44.28h5.46V61.94h3.17c5.62-.06,11.85-7.9,12.24-12.63h.65c-.24,4.63-.79,11.66-4.55,14.34l-.63.44.68.39a15.516,15.516,0,0,1,8,13.46h-5.56a11.072,11.072,0,0,0-11.12-10.78h-2.88V77.84h-5.46Z" fill="#07b6d4"/><path d="M119.43,36.48V11.12h5.32v6.57c1.68-3.55,5.66-7.1,10.55-7.1a8.764,8.764,0,0,1,8.53,7.14c1.44-3.69,4.79-7.14,9.68-7.14,5.99,0,8.92,4.99,8.92,10.6V36.48h-5.32V21.19c0-2.64-1.1-5.18-4.51-5.18-5.94,0-8.44,7.77-8.49,15.87v4.6h-5.23V21.19c0-2.49-1.1-5.18-3.98-5.18-6.18,0-10.16,7.72-10.21,15.77v4.7h-5.27Z" fill="#1b3f7e"/><path d="M191.29,25.93H172.3c.86,3.6,3.17,6.18,7.14,6.18a8.526,8.526,0,0,0,6.28-2.64l4.12,3.26a13.956,13.956,0,0,1-10.45,4.41c-7.62,0-12.8-5.94-12.8-13.52s5.13-12.99,12.61-12.99c7.05,0,12.08,6.09,12.08,12.99v2.3Zm-5.89-4.84c-.82-3.16-2.83-5.42-6.38-5.42-3.79,0-5.85,1.92-6.62,5.42h12.99Z" fill="#1b3f7e"/><path d="M196.07,36.48V11.31h5.37v6.18c1.68-3.55,5.03-6.9,9.88-6.9v6.04c-8.53,0-9.92,8.49-9.92,15.15v4.7h-5.32Z" fill="#1b3f7e"/><path d="M228.62,46.67c7.19,0,8.41-8.13,7.59-14.7a13.065,13.065,0,0,1-10.56,5.13c-7.53,0-12.66-5.18-12.66-13.14,0-7.48,5.13-13.42,12.51-13.42a11.718,11.718,0,0,1,10.26,5.8V11.11h5.37c0,4.17-.1,8.53-1.49,12.85,0,0-.94,6.74-1.23,11.34-.58,8.25-3.67,12.81-12.97,12.81m.59-32.25c-4.84,0-7.62,3.88-7.62,8.01,0,4.55,3.26,8.1,7.38,8.1,4.46,0,7.53-4.03,8.82-8.01-1.2-3.4-4.27-8.1-8.58-8.1" fill="#1b3f7e"/><path d="M249.53.33a3.358,3.358,0,0,1,3.69,3.55c0,2.26-1.49,3.5-3.69,3.5a3.35,3.35,0,0,1-3.69-3.5A3.408,3.408,0,0,1,249.53.33m-2.64,11.03h5.56V36.48h-5.56Z" fill="#1b3f7e"/><path d="M258.64,36.48V11.12h5.37v6.42c1.68-3.55,4.51-6.95,9.35-6.95,5.51,0,9.88,4.51,9.88,10.6V36.48h-5.27V21.33c0-2.97-1.73-5.32-5.23-5.32-5.9,0-8.77,8.1-8.77,15.77v4.7h-5.32Z" fill="#1b3f7e"/><path d="M293.16,40.7a15.7,15.7,0,0,0,8.01,2.54c7.19,0,10.12-4.55,9.3-11.12a11.941,11.941,0,0,1-10.02,4.99c-7.53,0-12.66-5.18-12.66-13.14,0-7.48,5.13-13.42,12.51-13.42a11.718,11.718,0,0,1,10.26,5.8V11.12h5.37c0,4.17-.1,8.53-1.49,12.85a30.547,30.547,0,0,1,1.49,11.55c-.58,8.25-5.71,12.9-15.01,12.9a19.628,19.628,0,0,1-10.16-2.97l2.4-4.75Zm7.67-24.84c-4.84,0-7.62,3.88-7.62,8.01,0,4.55,3.26,8.1,7.38,8.1,4.46,0,7.53-4.03,8.82-8.01-1.2-3.4-4.27-8.1-8.58-8.1" fill="#1b3f7e"/><path d="M92.65,36.45V3.62h21.94V9.26H98.44v8.22h14.38V22.5H98.44v8.32h16.63v5.64H92.66Z" fill="#1b3f7e"/><path d="M207.77,65.61l-1.62-4.78c3.24-1.1,6-5.96,7.1-10.62a11.907,11.907,0,0,1-3.27-1.58c-3.57-2.57-3.37-5.54-3.12-6.7a5.485,5.485,0,0,1,4.3-4.21,6.03,6.03,0,0,1,6.15,2.78,10.1,10.1,0,0,1,1.47,5.69c4.31.26,10.6-1.23,13.63-5.24,3.06-4.07,3.72-8.98,2.26-16.97l4.96-.91c1.72,9.41.76,15.66-3.19,20.91-4.38,5.82-12.65,7.62-18.25,7.22-1.39,6.12-5.15,12.61-10.43,14.4Zm4.47-22.95h-.08a.469.469,0,0,0-.36.33c-.07.31.26.9,1.14,1.54a4.789,4.789,0,0,0,.74.43,3.689,3.689,0,0,0-.49-1.58c-.32-.46-.67-.73-.94-.73Z" fill="url(#n)"/><path d="M207.77,65.61l-1.62-4.78c3.24-1.1,6-5.96,7.1-10.62a11.907,11.907,0,0,1-3.27-1.58c-3.57-2.57-3.37-5.54-3.12-6.7a5.485,5.485,0,0,1,4.3-4.21,6.021,6.021,0,0,1,6.15,2.79,10.1,10.1,0,0,1,1.47,5.69c4.31.26,10.6-1.23,13.63-5.24l4.03,3.03c-4.38,5.82-12.65,7.62-18.25,7.22-1.39,6.12-5.15,12.61-10.43,14.4Zm4.47-22.95h-.08a.469.469,0,0,0-.36.33c-.07.31.26.9,1.14,1.54a4.789,4.789,0,0,0,.74.43,3.689,3.689,0,0,0-.49-1.58c-.32-.46-.67-.73-.94-.73Z" fill="url(#o)"/></g></svg>