<svg xmlns="http://www.w3.org/2000/svg" width="23.987" height="23.987" viewBox="0 0 23.987 23.987"><g transform="translate(-0.5 -0.5)"><path d="M12.494,22.991a10.58,10.58,0,0,1-5.152-1.374,15.163,15.163,0,0,1-3.7-2.94A19.858,19.858,0,0,1,.606,14.443a1,1,0,0,1,.013-.92A19.31,19.31,0,0,1,5.95,7.264a1,1,0,0,1,1.4.184q1.46,1.892,2.635,3.508a1,1,0,0,1,1.134,1.589c.866,1.24,1.59,2.343,2.177,3.321a2,2,0,0,0,.585-.433A1,1,0,1,1,15.344,16.8a4,4,0,0,1-1.074.818c.982,1.944,1.22,3.239.777,4.16a2.637,2.637,0,0,1-2.537,1.217ZM2.643,14a18.749,18.749,0,0,0,2.5,3.349c2.279,2.416,4.751,3.642,7.348,3.644a1.922,1.922,0,0,0,.764-.1c.027-.108.109-.764-1-2.825A4,4,0,0,1,8.7,12.6Q7.66,11.149,6.388,9.481A17.283,17.283,0,0,0,2.643,14Zm18.686,4.186a1,1,0,0,1-.735-.322c-3.754-4.069-6.285-6.924-7.737-8.728a17.17,17.17,0,0,1-1.347-1.848,1.71,1.71,0,0,1-.274-1.578A1.238,1.238,0,0,1,12.5,5a10.578,10.578,0,0,1,5.15,1.374,15.163,15.163,0,0,1,3.7,2.94,19.857,19.857,0,0,1,3.038,4.234,1,1,0,0,1-.013.919,19.527,19.527,0,0,1-2.275,3.361,1,1,0,0,1-.742.356ZM13.81,7.106c.272.361.649.838,1.173,1.466,1.366,1.639,3.427,3.958,6.287,7.07a17.541,17.541,0,0,0,1.076-1.649,18.749,18.749,0,0,0-2.5-3.35A10.79,10.79,0,0,0,13.81,7.106Z" transform="translate(0 -1.502)" fill="#010202"/><path d="M23.487,24.487a1,1,0,0,1-.707-.293L.793,2.207A1,1,0,0,1,2.207.793L24.194,22.78a1,1,0,0,1-.707,1.707Z" transform="translate(0 0)" fill="#010202"/></g></svg>