<svg xmlns="http://www.w3.org/2000/svg" xmlns:xlink="http://www.w3.org/1999/xlink" width="50" height="50" viewBox="0 0 50 50"><defs><clipPath id="a"><circle cx="25" cy="25" r="25" fill="#707070"/></clipPath></defs><path d="M25,0A25,25,0,1,1,0,25,25,25,0,0,1,25,0Z" fill="#eaeaea"/><g clip-path="url(#a)"><path d="M1897.063,136.653c.1-1.634-.225-1.927-.225-1.927,0-1.444-.327-1.651-.327-1.651-.068-.739-.533-3.113-.533-3.113.24-.792-.481-.551-.24-1.136s-.379-1.169-.655-1.531.189-.1-.12-1.444-1.17-.757-1.17-.757l-4.514-1.247a1.962,1.962,0,0,0-.336-1.057.891.891,0,0,1-.1-.955c1.213-.154,1.367-1.626,1.342-2.348s-1.5-2.27-1.135-5.16c.027-.221.051-.412.07-.578.015.026.032.051.047.078a2.8,2.8,0,0,1,.195.411,1.561,1.561,0,0,1,.1.45,1.626,1.626,0,0,0,.025-.477,3.075,3.075,0,0,0-.082-.478c-.031-.127-.069-.251-.111-.374a3.8,3.8,0,0,1,.3.471,3.734,3.734,0,0,1,.364.99,4.287,4.287,0,0,1,.087,1.071,4.417,4.417,0,0,0,.039-1.092,3.977,3.977,0,0,0-.259-1.078,4.194,4.194,0,0,0-.552-.981c-.048-.063-.1-.123-.148-.184a8.288,8.288,0,0,1-1.042-2.824c-.963-3.956-2.58-4.508-4.128-5.608a1.856,1.856,0,0,0-2.56.034c-1.769-1.135-2.05,0-4.217,1.272a4.08,4.08,0,0,0-1.361,1.467c-.021.01-.038.019-.057.029a.5.5,0,0,0-.068.043.534.534,0,0,0-.06.046.966.966,0,0,0-.1.094l-.087.1a2.9,2.9,0,0,0-.265.4c-.079.135-.141.276-.206.414s-.121.279-.17.421-.1.283-.149.427-.094.284-.133.429c-.087.286-.159.576-.233.864.04-.1.082-.2.123-.3-.1.287-.179.577-.258.866-.054.227-.115.451-.163.679l-.073.34c-.024.115-.048.228-.068.343-.041.228-.087.455-.123.684l-.11.686.171-.672c.058-.224.125-.446.186-.668.03-.112.064-.222.1-.332l.1-.33c.068-.22.149-.436.221-.654s.159-.417.243-.621c-.065.337-.114.667-.148.979l-.045.035a.505.505,0,0,0-.072.071l-.033.037c-.011.013-.019.026-.028.038s-.035.052-.051.079l-.038.08a1.767,1.767,0,0,0-.132.621c0,.1-.008.2,0,.3l.007.146c0,.049.01.1.014.145.012.1.022.191.03.279a2.233,2.233,0,0,1,.019.268,2.5,2.5,0,0,1-.195,1.053,2.088,2.088,0,0,1-.682.853,2.148,2.148,0,0,0,.795-.795,2.673,2.673,0,0,0,.337-1.1,2.232,2.232,0,0,0,.013-.292l0-.28c0-.046,0-.091,0-.136l.009-.133c0-.014,0-.027,0-.039a3.208,3.208,0,0,0,.078.576,3.6,3.6,0,0,1-.747,2.542l-.06.035a1.7,1.7,0,0,0-.168.114,2.566,2.566,0,0,0-.3.257,3.533,3.533,0,0,0-.479.6l-.1.162c-.031.053-.059.11-.089.165-.061.109-.106.224-.157.336s-.088.231-.132.345l-.106.351.165-.326c.063-.1.12-.21.186-.311s.131-.2.208-.294c.037-.047.072-.095.11-.139l.117-.133c.085-.09.173-.177.266-.257a14.531,14.531,0,0,0-1.123,2.2c-.928,2.408.878,4.454.809,4.713s0,.257-.086.516-3.921.98-3.921.98c-1.084-.79-1.1,1.377-1.358,1.772s-.413.773-.792,1.445,0,1,0,1c-.671,1.2-.671,5.573-.877,6.158a68.436,68.436,0,0,0-.569,7.946,3.139,3.139,0,0,1-.031.861c13.353.01,25.368,0,31.493-.033a1.674,1.674,0,0,0-.276-.467m-22.791-24.682c-.154.379-1.066,1.859-.929,2.753,0,0-.67-.443-.063-2.068a3.137,3.137,0,0,1,.443-.79,2.37,2.37,0,0,0,.549-1.133,3.176,3.176,0,0,1,0,1.238" transform="translate(-1855.891 -92.532)" fill="#010202"/></g></svg>