<svg xmlns="http://www.w3.org/2000/svg" width="55.8" height="69" viewBox="0 0 55.8 69"><g transform="translate(-4.5 -1.5)"><path d="M45.6,50.7c-5.239,0-9.569-1.732-13.757-3.407C27.738,45.651,23.861,44.1,19.2,44.1a26.885,26.885,0,0,0-9.517,1.45,8.868,8.868,0,0,0-2.631,1.42,1.469,1.469,0,0,1-1.621.342A1.508,1.508,0,0,1,4.5,45.9V6.3a1.5,1.5,0,0,1,.439-1.061A10.472,10.472,0,0,1,8.33,3.257,29.532,29.532,0,0,1,19.2,1.5c5.239,0,9.569,1.732,13.757,3.407C37.062,6.549,40.939,8.1,45.6,8.1a26.885,26.885,0,0,0,9.517-1.45,8.868,8.868,0,0,0,2.631-1.42,1.469,1.469,0,0,1,1.621-.342A1.508,1.508,0,0,1,60.3,6.3V45.9a1.5,1.5,0,0,1-.439,1.061,10.472,10.472,0,0,1-3.391,1.982A29.532,29.532,0,0,1,45.6,50.7ZM19.2,41.1c5.239,0,9.569,1.732,13.757,3.407,4.1,1.642,7.982,3.193,12.643,3.193a26.885,26.885,0,0,0,9.517-1.45A10.986,10.986,0,0,0,57.3,45.165V8.984c-.255.119-.532.239-.83.359A29.532,29.532,0,0,1,45.6,11.1c-5.239,0-9.569-1.732-13.757-3.407C27.738,6.051,23.861,4.5,19.2,4.5A26.885,26.885,0,0,0,9.683,5.95,10.986,10.986,0,0,0,7.5,7.035V43.216c.255-.119.532-.239.83-.359A29.532,29.532,0,0,1,19.2,41.1Z" transform="translate(0 0)" fill="#fff"/><path d="M6,47.1a1.5,1.5,0,0,1-1.5-1.5V22.5a1.5,1.5,0,0,1,3,0V45.6A1.5,1.5,0,0,1,6,47.1Z" transform="translate(0 23.4)" fill="#fff"/></g></svg>