<svg xmlns="http://www.w3.org/2000/svg" width="32" height="32" viewBox="0 0 32 32"><g transform="translate(-498 -1088)"><g transform="translate(502.397 1092.544)"><path d="M22.1,22.848a1.162,1.162,0,0,1-.25-.027,1.138,1.138,0,0,1-.436-.2,1.153,1.153,0,0,1-.319-.357,11.576,11.576,0,0,0-18.932,0,1.154,1.154,0,0,1-1,.582,1.156,1.156,0,0,1-.992-.563,1.18,1.18,0,0,1-.155-.453,1.158,1.158,0,0,1,.273-.9,13.74,13.74,0,0,1,6.547-5.043A8.671,8.671,0,0,1,6.456,1.709a8.671,8.671,0,0,1,13.328,9.9,8.731,8.731,0,0,1-3.36,4.285,13.732,13.732,0,0,1,6.546,5.043,1.156,1.156,0,0,1-.646,1.889A1.149,1.149,0,0,1,22.1,22.848ZM11.625,2.324a6.365,6.365,0,1,0,1.241.122A6.333,6.333,0,0,0,11.625,2.324Z" transform="translate(0 0)"/></g><rect width="32" height="32" transform="translate(498 1088)" fill="none"/></g></svg>