<svg xmlns="http://www.w3.org/2000/svg" width="35" height="35" viewBox="0 0 35 35"><path d="M2307.5,3939a17.5,17.5,0,1,1,12.374-5.126A17.386,17.386,0,0,1,2307.5,3939Zm3.947-17.8c2.426,0,2.426,2.3,2.426,3.987v7.312h4.669v-8.241c0-3.721-.679-7.165-5.6-7.165a4.941,4.941,0,0,0-4.423,2.426h-.063v-2.053h-4.478V3932.5h4.668v-7.439C2308.642,3923.152,2308.975,3921.2,2311.448,3921.2Zm-15.074-3.734V3932.5h4.676v-15.033Zm2.334-7.468a2.707,2.707,0,1,0,2.708,2.708A2.71,2.71,0,0,0,2298.707,3910Z" transform="translate(-2290 -3904)" fill="#fff"/></svg>