<svg xmlns="http://www.w3.org/2000/svg" width="34.059" height="30.853" viewBox="0 0 34.059 30.853"><g transform="translate(-2 -3.5)"><path d="M3,3.5h9.618a7.42,7.42,0,0,1,7.412,7.412V33.353a1,1,0,0,1-2,0,3.813,3.813,0,0,0-3.809-3.809H3a1,1,0,0,1-1-1V4.5A1,1,0,0,1,3,3.5ZM18.03,28.971V10.912A5.418,5.418,0,0,0,12.618,5.5H4V27.544H14.221A5.785,5.785,0,0,1,18.03,28.971Z" fill="#707070"/><path d="M24.412,3.5H34.03a1,1,0,0,1,1,1V28.544a1,1,0,0,1-1,1H22.809A3.813,3.813,0,0,0,19,33.353a1,1,0,0,1-2,0V10.912A7.42,7.42,0,0,1,24.412,3.5Zm8.618,2H24.412A5.418,5.418,0,0,0,19,10.912V28.971a5.785,5.785,0,0,1,3.809-1.426H33.03Z" transform="translate(1.03)" fill="#707070"/></g></svg>