<svg xmlns="http://www.w3.org/2000/svg" width="30" height="30" viewBox="0 0 30 30"><g transform="translate(-31)"><rect width="30" height="30" transform="translate(31)"/><path d="M1,1V29H29V1H1M0,0H30V30H0Z" transform="translate(31)"/><g transform="translate(38.069 8)"><path d="M9.454,20.362h-3.3A2.654,2.654,0,0,1,3.5,17.711V6.151A2.654,2.654,0,0,1,6.151,3.5h3.3a1,1,0,0,1,0,2h-3.3a.652.652,0,0,0-.651.651v11.56a.652.652,0,0,0,.651.651h3.3a1,1,0,0,1,0,2Z" transform="translate(-4.5 -4.5)" fill="#fff"/><path d="M24,19.757a1,1,0,0,1-.707-1.707l3.421-3.421-3.421-3.421a1,1,0,0,1,1.414-1.414l4.128,4.128a1,1,0,0,1,0,1.414l-4.128,4.128A1,1,0,0,1,24,19.757Z" transform="translate(-13.266 -7.197)" fill="#fff"/><path d="M23.408,19H13.5a1,1,0,0,1,0-2h9.908a1,1,0,0,1,0,2Z" transform="translate(-8.546 -10.569)" fill="#fff"/></g></g></svg>