<svg xmlns="http://www.w3.org/2000/svg" width="26" height="32" viewBox="0 0 26 32"><g transform="translate(-478.982 -931)"><g transform="translate(473.982 929)"><path d="M6,30.25a1,1,0,0,1-1-1A4.755,4.755,0,0,1,9.75,24.5H30a1,1,0,0,1,0,2H9.75A2.753,2.753,0,0,0,7,29.25,1,1,0,0,1,6,30.25Z" fill="#707070"/><path d="M9.75,2H30a1,1,0,0,1,1,1V33a1,1,0,0,1-1,1H9.75A4.755,4.755,0,0,1,5,29.25V6.75A4.755,4.755,0,0,1,9.75,2ZM29,4H9.75A2.753,2.753,0,0,0,7,6.75v22.5A2.753,2.753,0,0,0,9.75,32H29Z" fill="#707070"/></g><path d="M7.506,5h7.9a1,1,0,0,1,1,1v9.04a1,1,0,0,1-1.394.919l-3.561-1.526L7.894,15.959a1,1,0,0,1-1.394-.92L6.506,6A1,1,0,0,1,7.506,5Zm6.9,2h-5.9l0,6.523,2.56-1.1a1,1,0,0,1,.788,0l2.561,1.1Z" transform="translate(484.972 926)" fill="#707070"/></g></svg>