<svg xmlns="http://www.w3.org/2000/svg" width="39" height="49" viewBox="0 0 39 49"><g transform="translate(-5599.987 -3367.572)"><path d="M5,3A2,2,0,0,0,3,5V44a2,2,0,0,0,2,2H34a2,2,0,0,0,2-2V5a2,2,0,0,0-2-2H5M5,0H34a5,5,0,0,1,5,5V44a5,5,0,0,1-5,5H5a5,5,0,0,1-5-5V5A5,5,0,0,1,5,0Z" transform="translate(5599.987 3367.572)" fill="#707070"/><path d="M12.227,12.2a1.494,1.494,0,0,1-.987-.371L-.988,1.129A1.5,1.5,0,0,1-1.129-.988,1.5,1.5,0,0,1,.988-1.129L13.215,9.57a1.5,1.5,0,0,1-.988,2.629Z" transform="translate(5613.755 3397.572)" fill="#707070"/><path d="M0,12.5A1.5,1.5,0,0,1-1.115,12,1.5,1.5,0,0,1-1,9.885l12.228-11A1.5,1.5,0,0,1,13.343-1a1.5,1.5,0,0,1-.112,2.118L1,12.115A1.5,1.5,0,0,1,0,12.5Z" transform="translate(5613.755 3397.271)" fill="#707070"/><path d="M0,10.2a1.5,1.5,0,0,1-1.092-.471,1.5,1.5,0,0,1,.062-2.12L8.2-1.091a1.5,1.5,0,0,1,2.12.062,1.5,1.5,0,0,1-.062,2.12l-9.228,8.7A1.5,1.5,0,0,1,0,10.2Z" transform="translate(5617.528 3377.072)" fill="#707070"/><path d="M3.774,6.35a1.5,1.5,0,0,1-1.185-.579L-1.184.921a1.5,1.5,0,0,1,.263-2.1,1.5,1.5,0,0,1,2.1.263l3.772,4.85A1.5,1.5,0,0,1,3.774,6.35Z" transform="translate(5613.755 3380.922)" fill="#707070"/></g></svg>