<svg xmlns="http://www.w3.org/2000/svg" width="32" height="32" viewBox="0 0 32 32"><g transform="translate(-311 -1088)"><g transform="translate(314.908 1093)"><path d="M15.671,22.123H8.3a.921.921,0,0,1-.922-.922A.922.922,0,0,1,8.3,20.28h7.375a.923.923,0,0,1,.922.922.922.922,0,0,1-.922.922Zm5.53-3.687H2.765A2.776,2.776,0,0,1,0,15.671V2.765A2.776,2.776,0,0,1,2.765,0H21.2a2.777,2.777,0,0,1,2.766,2.765V15.671A2.777,2.777,0,0,1,21.2,18.436ZM2.765,1.844a.923.923,0,0,0-.922.922V15.671a.925.925,0,0,0,.27.651.912.912,0,0,0,.651.271H21.2a.923.923,0,0,0,.923-.922V2.765a.916.916,0,0,0-.27-.651.926.926,0,0,0-.652-.27ZM10.14,13.827h0a.985.985,0,0,1-.438-.1.923.923,0,0,1-.484-.817V5.531A.923.923,0,0,1,9.7,4.712a.965.965,0,0,1,.431-.1h.048a.954.954,0,0,1,.466.148l5.531,3.687a.923.923,0,0,1,0,1.545l-5.531,3.687A.964.964,0,0,1,10.14,13.827Zm.922-6.579h0v3.941l2.95-1.97-2.95-1.97Z"/></g><rect width="32" height="32" transform="translate(311 1088)" fill="none"/></g></svg>