<svg xmlns="http://www.w3.org/2000/svg" width="24" height="24" viewBox="0 0 24 24"><g transform="translate(-47 -1297)"><rect width="24" height="24" transform="translate(47 1297)" fill="none"/><g transform="translate(20.524 1279.058)"><g transform="translate(29.487 20.942)"><path d="M12.959,22.8a2.884,2.884,0,0,1-1.44-.386L4.944,18.654A2.89,2.89,0,0,1,3.5,16.16V8.64A2.889,2.889,0,0,1,4.94,6.148l6.583-3.762a2.88,2.88,0,0,1,2.876,0l6.575,3.757a2.89,2.89,0,0,1,1.444,2.493v7.52a2.889,2.889,0,0,1-1.44,2.492l-6.583,3.762A2.879,2.879,0,0,1,12.959,22.8ZM12.959,4a.881.881,0,0,0-.44.118L5.936,7.883a.881.881,0,0,0-.436.759v7.518a.882.882,0,0,0,.44.76l6.575,3.757a.88.88,0,0,0,.884,0l6.583-3.762a.881.881,0,0,0,.436-.759V8.64a.882.882,0,0,0-.44-.76L13.4,4.123A.885.885,0,0,0,12.959,4Z" transform="translate(-4.5 -3.003)" fill="#010202"/><path d="M0,6.818a1,1,0,0,1-.867-.5A1,1,0,0,1-.5,4.952L2.361,3.3V0a1,1,0,0,1,1-1,1,1,0,0,1,1,1V3.876a1,1,0,0,1-.5.866L.5,6.684A1,1,0,0,1,0,6.818Z" transform="matrix(-0.899, 0.438, -0.438, -0.899, 7.746, 11.285)" fill="#010202"/><path d="M3.361,6.819a1,1,0,0,1-1-1v-3.3L-.5.866A1,1,0,0,1-.866-.5,1,1,0,0,1,.5-.866L3.861,1.076a1,1,0,0,1,.5.866V5.819A1,1,0,0,1,3.361,6.819Z" transform="matrix(0.899, 0.438, -0.438, 0.899, 11.722, 6.056)" fill="#010202"/></g></g></g></svg>