<svg xmlns="http://www.w3.org/2000/svg" width="24" height="24" viewBox="0 0 24 24"><g transform="translate(-58 -265)"><g transform="translate(63 268)"><path d="M4.944-5.622H2.4l-.408,1.2H.256l2.466-6.814H4.643L7.109-4.418H5.352ZM4.517-6.9,3.673-9.4,2.838-6.9Z" transform="translate(2.744 19.281)" fill="#010202"/><g transform="translate(1)"><g transform="translate(0.641 0)"><path d="M4.758,2h9.1a1,1,0,0,1,.714.3l6.154,6.272a1,1,0,0,1,.286.7v9.856a2.778,2.778,0,0,1-2.758,2.792H4.758A2.778,2.778,0,0,1,2,19.128V4.792A2.778,2.778,0,0,1,4.758,2Zm8.677,2H4.758A.777.777,0,0,0,4,4.792V19.128a.777.777,0,0,0,.758.792H18.251a.777.777,0,0,0,.758-.792V9.681Z" transform="translate(-6.641 -3)" fill="#010202"/><path d="M25.772,10.272H19.5a1,1,0,0,1-1-1V3a1,1,0,0,1,2,0V8.272h5.272a1,1,0,0,1,0,2Z" transform="translate(-12.403 -3)" fill="#010202"/></g></g></g><rect width="24" height="24" transform="translate(58 265)" fill="none"/></g></svg>