<svg xmlns="http://www.w3.org/2000/svg" width="24" height="24" viewBox="0 0 24 24"><g transform="translate(-58 -173)"><path d="M5.65,14.927a.685.685,0,0,0,.5-.215L7.463,13.37l1.312,1.341A.7.7,0,0,0,9.951,14.4l.466-1.827,1.807.515a.706.706,0,0,0,.865-.865l-.515-1.808L14.4,9.949a.7.7,0,0,0,.311-1.176L13.371,7.461l1.341-1.312A.7.7,0,0,0,14.4,4.973l-1.826-.466L13.089,2.7a.706.706,0,0,0-.865-.865l-1.807.515L9.951.522A.7.7,0,0,0,8.775.211L7.463,1.562,6.152.211A.7.7,0,0,0,4.976.522L4.51,2.349,2.7,1.834a.706.706,0,0,0-.865.865l.515,1.808L.526,4.973A.7.7,0,0,0,.216,6.149L1.556,7.461.216,8.773A.7.7,0,0,0,.526,9.949l1.826.466-.515,1.808a.706.706,0,0,0,.865.865l1.807-.515L4.976,14.4a.683.683,0,0,0,.674.526m0,2a2.682,2.682,0,0,1-2.567-1.873,2.689,2.689,0,0,1-.567.061A2.721,2.721,0,0,1,.362,14.039a2.673,2.673,0,0,1-.489-2.2A2.7,2.7,0,0,1-1.3,7.461,2.7,2.7,0,0,1-.127,3.08,2.673,2.673,0,0,1,.362.883,2.721,2.721,0,0,1,2.516-.192a2.689,2.689,0,0,1,.567.061A2.7,2.7,0,0,1,7.463-1.3a2.65,2.65,0,0,1,1.8-.7A2.687,2.687,0,0,1,11.844-.132a2.689,2.689,0,0,1,.567-.061A2.721,2.721,0,0,1,14.565.883a2.673,2.673,0,0,1,.489,2.2,2.7,2.7,0,0,1,1.17,4.381,2.7,2.7,0,0,1-1.17,4.381,2.673,2.673,0,0,1-.489,2.2,2.721,2.721,0,0,1-2.153,1.075,2.691,2.691,0,0,1-.568-.061,2.7,2.7,0,0,1-4.381,1.171A2.7,2.7,0,0,1,5.65,16.927Z" transform="translate(62.066 178)" fill="#010202"/><rect width="24" height="24" transform="translate(58 173)" fill="none"/></g></svg>