<svg xmlns="http://www.w3.org/2000/svg" width="24" height="24" viewBox="0 0 24 24"><g transform="translate(-58 -265)"><g transform="translate(55.061 265.236)"><path d="M6,28.91a1,1,0,0,1-1-1A3.526,3.526,0,0,1,8.625,24.5H22.8a1,1,0,0,1,0,2H8.625A1.531,1.531,0,0,0,7,27.91,1,1,0,0,1,6,28.91Z" transform="translate(0 -10.515)" fill="#010202"/><path d="M8.625,2H22.8a1,1,0,0,1,1,1V19.8a1,1,0,0,1-1,1H8.625a3.972,3.972,0,0,1-2.481-.834A2.92,2.92,0,0,1,5,17.7V5.1A2.92,2.92,0,0,1,6.144,2.834,3.972,3.972,0,0,1,8.625,2ZM21.8,4H8.625C7.744,4,7,4.5,7,5.1V17.7c0,.6.744,1.1,1.625,1.1H21.8Z" transform="translate(0)" fill="#010202"/></g><rect width="24" height="24" transform="translate(58 265)" fill="none"/></g></svg>