<svg xmlns="http://www.w3.org/2000/svg" width="24" height="24" viewBox="0 0 24 24"><g transform="translate(2327 -13077)"><g transform="translate(-2323 13080)"><path d="M12.953,2a1,1,0,0,1,.614.211l8.453,6.574a1,1,0,0,1,.386.789V19.905a2.882,2.882,0,0,1-2.878,2.878H6.378A2.882,2.882,0,0,1,3.5,19.905V9.574a1,1,0,0,1,.386-.789l8.453-6.574A1,1,0,0,1,12.953,2Zm7.453,8.063-7.453-5.8L5.5,10.063v9.842a.879.879,0,0,0,.878.878H19.527a.879.879,0,0,0,.878-.878Z" transform="translate(-4.5 -3)" fill="#fff"/><path d="M19.135,28.392a1,1,0,0,1-1-1V19H14.5v8.392a1,1,0,0,1-2,0V18a1,1,0,0,1,1-1h5.635a1,1,0,0,1,1,1v9.392A1,1,0,0,1,19.135,28.392Z" transform="translate(-7.865 -8.608)" fill="#fff"/></g><rect width="24" height="24" transform="translate(-2327 13077)" fill="none"/></g></svg>