<svg xmlns="http://www.w3.org/2000/svg" width="24" height="24" viewBox="0 0 24 24"><g transform="translate(-47)"><g transform="translate(50 4)"><path d="M16.176,12.5A3.676,3.676,0,1,1,12.5,16.176,3.68,3.68,0,0,1,16.176,12.5Zm0,5.351A1.676,1.676,0,1,0,14.5,16.176,1.678,1.678,0,0,0,16.176,17.851Z" transform="translate(-7.701 -7.701)" fill="#fff"/><path d="M10.036,19.449A2.544,2.544,0,0,1,7.5,16.908v-.053a.27.27,0,0,0-.177-.241l-.059-.024a.274.274,0,0,0-.3.052l-.041.041a2.542,2.542,0,1,1-3.594-3.595l.04-.04a.27.27,0,0,0,.052-.3l0-.01a.271.271,0,0,0-.248-.164H3.041a2.541,2.541,0,1,1,0-5.082h.053a.27.27,0,0,0,.241-.177q.011-.03.024-.059a.27.27,0,0,0-.052-.3l-.041-.041A2.542,2.542,0,1,1,6.861,3.328l.04.04a.274.274,0,0,0,.3.052,1,1,0,0,1,.145-.051.271.271,0,0,0,.091-.2V3.041a2.541,2.541,0,0,1,5.082,0V3.11a.27.27,0,0,0,.164.244l.01,0a.274.274,0,0,0,.3-.052l.041-.041a2.542,2.542,0,1,1,3.594,3.595l-.041.041a.27.27,0,0,0-.052.3,1,1,0,0,1,.051.145.271.271,0,0,0,.2.091h.127a2.541,2.541,0,0,1,0,5.082h-.069a.27.27,0,0,0-.244.164l0,.01a.27.27,0,0,0,.052.3l.041.041a2.542,2.542,0,1,1-3.595,3.594l-.041-.041a.274.274,0,0,0-.3-.052l-.01,0a.271.271,0,0,0-.164.248v.127A2.544,2.544,0,0,1,10.036,19.449Zm-2-4.7A2.258,2.258,0,0,1,9.5,16.816q0,.012,0,.023v.069a.541.541,0,1,0,1.082,0v-.131a2.28,2.28,0,0,1,3.872-1.624l.008.008.046.046a.542.542,0,1,0,.766-.766l-.047-.047-.008-.008a2.281,2.281,0,0,1,1.62-3.872h.073a.541.541,0,0,0,0-1.082h-.131a2.271,2.271,0,0,1-2.082-1.376,1,1,0,0,1-.069-.239A2.259,2.259,0,0,1,15.153,5.5l.008-.008.046-.046a.542.542,0,1,0-.766-.766l-.047.047-.008.008a2.281,2.281,0,0,1-3.872-1.62V3.041a.541.541,0,1,0-1.082,0v.131A2.271,2.271,0,0,1,8.057,5.254a1,1,0,0,1-.239.069A2.272,2.272,0,0,1,5.5,4.8l-.008-.008-.046-.046a.542.542,0,1,0-.767.766l.047.047.008.008A2.26,2.26,0,0,1,5.2,8.038,2.258,2.258,0,0,1,3.134,9.5H3.041a.541.541,0,1,0,0,1.082h.131A2.281,2.281,0,0,1,4.8,14.449l-.008.008-.046.046a.542.542,0,1,0,.766.767l.047-.047.008-.008a2.271,2.271,0,0,1,2.476-.467Z" transform="translate(-1.5 -1.5)" fill="#fff"/></g><rect width="24" height="24" transform="translate(47)" fill="none"/></g></svg>