<svg xmlns="http://www.w3.org/2000/svg" width="24" height="24" viewBox="0 0 24 24"><g transform="translate(-65)"><rect width="24" height="24" transform="translate(65)" fill="none"/><g transform="translate(68 5)"><path d="M16.833,1H0A1,1,0,0,1-1,0,1,1,0,0,1,0-1H16.833a1,1,0,0,1,1,1A1,1,0,0,1,16.833,1Z" transform="translate(0 6.34)" fill="#fff"/><path d="M16.833,1H0A1,1,0,0,1-1,0,1,1,0,0,1,0-1H16.833a1,1,0,0,1,1,1A1,1,0,0,1,16.833,1Z" transform="translate(0 5.34)" fill="#fff"/><path d="M0-1H17a1,1,0,0,1,1,1V14a1,1,0,0,1-1,1H0a1,1,0,0,1-1-1V0A1,1,0,0,1,0-1ZM16,1H1V13H16Z" fill="#fff"/></g></g></svg>