<svg xmlns="http://www.w3.org/2000/svg" width="24" height="24" viewBox="0 0 24 24"><g transform="translate(-60 -265)"><g transform="translate(14.5 -576.346)"><path d="M14,1H0A1,1,0,0,1-1,0,1,1,0,0,1,0-1H14a1,1,0,0,1,1,1A1,1,0,0,1,14,1Z" transform="translate(51.5 857.346)" fill="#010202"/><path d="M14,1H0A1,1,0,0,1-1,0,1,1,0,0,1,0-1H14a1,1,0,0,1,1,1A1,1,0,0,1,14,1Z" transform="translate(51.5 853.346)" fill="#010202"/><path d="M14,1H0A1,1,0,0,1-1,0,1,1,0,0,1,0-1H14a1,1,0,0,1,1,1A1,1,0,0,1,14,1Z" transform="translate(51.5 849.346)" fill="#010202"/><path transform="translate(48.5 857.346)" fill="#010202"/><path transform="translate(48.5 853.346)" fill="#010202"/><path transform="translate(48.5 849.346)" fill="#010202"/></g><rect width="24" height="24" transform="translate(60 265)" fill="none"/></g></svg>