<svg xmlns="http://www.w3.org/2000/svg" width="24" height="24" viewBox="0 0 24 24"><g transform="translate(-60)"><g transform="translate(63 8)"><path d="M14,1H0A1,1,0,0,1-1,0,1,1,0,0,1,0-1H14a1,1,0,0,1,1,1A1,1,0,0,1,14,1Z" transform="translate(3 8)" fill="#fff"/><path d="M14,1H0A1,1,0,0,1-1,0,1,1,0,0,1,0-1H14a1,1,0,0,1,1,1A1,1,0,0,1,14,1Z" transform="translate(3 4)" fill="#fff"/><path d="M14,1H0A1,1,0,0,1-1,0,1,1,0,0,1,0-1H14a1,1,0,0,1,1,1A1,1,0,0,1,14,1Z" transform="translate(3)" fill="#fff"/><path transform="translate(0 8)" fill="#fff"/><path transform="translate(0 4)" fill="#fff"/><path fill="#fff"/></g><rect width="24" height="24" transform="translate(60)" fill="none"/></g></svg>