<svg xmlns="http://www.w3.org/2000/svg" width="24" height="24" viewBox="0 0 24 24"><g transform="translate(-64 -173)"><g transform="translate(62.5 171.5)"><path d="M6.41,3.5H19.783a2.914,2.914,0,0,1,2.91,2.91V19.783a2.914,2.914,0,0,1-2.91,2.91H6.41a2.914,2.914,0,0,1-2.91-2.91V6.41A2.914,2.914,0,0,1,6.41,3.5ZM19.783,20.693a.911.911,0,0,0,.91-.91V6.41a.911.911,0,0,0-.91-.91H6.41a.911.911,0,0,0-.91.91V19.783a.911.911,0,0,0,.91.91Z" fill="#010202"/><path d="M21.693,14.5H4.5a1,1,0,0,1,0-2H21.693a1,1,0,0,1,0,2Z" transform="translate(0 -3.269)" fill="#010202"/><path d="M13.5,25.49a1,1,0,0,1-1-1V13.5a1,1,0,0,1,2,0V24.49A1,1,0,0,1,13.5,25.49Z" transform="translate(-3.269 -2.796)" fill="#010202"/></g><rect width="24" height="24" transform="translate(64 173)" fill="none"/></g></svg>