<svg xmlns="http://www.w3.org/2000/svg" width="24" height="24" viewBox="0 0 24 24"><g transform="translate(-59 -265)"><g transform="translate(57.585 264.448)"><path d="M6.376,3.5h13.13a2.832,2.832,0,0,1,2.876,2.78V18.739a2.832,2.832,0,0,1-2.876,2.78H6.376A2.832,2.832,0,0,1,3.5,18.739V6.28A2.832,2.832,0,0,1,6.376,3.5Zm13.13,16.019a.833.833,0,0,0,.876-.78V6.28a.833.833,0,0,0-.876-.78H6.376a.833.833,0,0,0-.876.78V18.739a.833.833,0,0,0,.876.78Z" transform="translate(0 0)" fill="#010202"/><path d="M7.5,25.789a1,1,0,0,1-.688-1.725l10.317-9.789a1,1,0,0,1,1.377,0l4.689,4.45a1,1,0,0,1-1.377,1.451l-4-3.8L8.188,25.515A1,1,0,0,1,7.5,25.789Z" transform="translate(-1.124 -4.271)" fill="#010202"/><circle cx="2" cy="2" r="2" transform="translate(7.415 7.552)" fill="#010202"/></g><rect width="24" height="24" transform="translate(59 265)" fill="none"/></g></svg>