<svg xmlns="http://www.w3.org/2000/svg" width="24" height="24" viewBox="0 0 24 24"><g transform="translate(-59)"><g transform="translate(62.085 3.948)"><path d="M6.376,3.5h13.13a2.832,2.832,0,0,1,2.876,2.78V18.739a2.832,2.832,0,0,1-2.876,2.78H6.376A2.832,2.832,0,0,1,3.5,18.739V6.28A2.832,2.832,0,0,1,6.376,3.5Zm13.13,16.019a.833.833,0,0,0,.876-.78V6.28a.833.833,0,0,0-.876-.78H6.376a.833.833,0,0,0-.876.78V18.739a.833.833,0,0,0,.876.78Z" transform="translate(-4.5 -4.5)" fill="#fff"/><path d="M7.5,25.789a1,1,0,0,1-.688-1.725l10.317-9.789a1,1,0,0,1,1.377,0l4.689,4.45a1,1,0,0,1-1.377,1.451l-4-3.8L8.188,25.515A1,1,0,0,1,7.5,25.789Z" transform="translate(-5.624 -8.771)" fill="#fff"/><circle cx="2" cy="2" r="2" transform="translate(2.915 3.052)" fill="#fff"/></g><rect width="24" height="24" transform="translate(59)" fill="none"/></g></svg>