<svg xmlns="http://www.w3.org/2000/svg" width="24" height="24" viewBox="0 0 24 24"><g transform="translate(3 3)"><path d="M4.758,2h9.1a1,1,0,0,1,.714.3l6.154,6.272a1,1,0,0,1,.286.7v9.856a2.778,2.778,0,0,1-2.758,2.792H4.758A2.778,2.778,0,0,1,2,19.128V4.792A2.778,2.778,0,0,1,4.758,2Zm8.677,2H4.758A.777.777,0,0,0,4,4.792V19.128a.777.777,0,0,0,.758.792H18.251a.777.777,0,0,0,.758-.792V9.681Z" transform="translate(-3 -3)" fill="#fff"/><path d="M25.772,10.272H19.5a1,1,0,0,1-1-1V3a1,1,0,0,1,2,0V8.272h5.272a1,1,0,0,1,0,2Z" transform="translate(-8.763 -3)" fill="#fff"/><path d="M6.105-9.072a2.16,2.16,0,0,1-.268,1.066,1.967,1.967,0,0,1-.822.779,2.894,2.894,0,0,1-1.376.3H2.626v2.408H.992v-6.709H3.639A3.013,3.013,0,0,1,5-10.955a1.9,1.9,0,0,1,.831.765A2.222,2.222,0,0,1,6.105-9.072Zm-2.59.841a.975.975,0,0,0,.7-.22.82.82,0,0,0,.229-.621.82.82,0,0,0-.229-.621.975.975,0,0,0-.7-.22H2.626v1.682Z" transform="translate(5.008 19.157)" fill="#fff"/></g><rect width="24" height="24" fill="none"/></svg>