<svg xmlns="http://www.w3.org/2000/svg" width="24" height="24" viewBox="0 0 24 24"><g transform="translate(2330)"><rect width="24" height="24" transform="translate(-2330)" fill="none"/><g transform="translate(-2327 5)"><path d="M13.08,28.132a1,1,0,0,1-1-1V25.588A2.09,2.09,0,0,0,9.992,23.5h-5.4A2.088,2.088,0,0,0,2.5,25.588v1.544a1,1,0,0,1-2,0V25.588A4.088,4.088,0,0,1,4.588,21.5h5.4a4.093,4.093,0,0,1,4.088,4.088v1.544A1,1,0,0,1,13.08,28.132Z" transform="translate(-1.5 -13.236)" fill="#fff"/><path d="M9.838,3.5A4.088,4.088,0,1,1,5.75,7.588,4.093,4.093,0,0,1,9.838,3.5Zm0,6.176A2.088,2.088,0,1,0,7.75,7.588,2.09,2.09,0,0,0,9.838,9.676Z" transform="translate(-4.048 -4.5)" fill="#fff"/><path d="M27.044,17.588a1,1,0,0,1-.707-.293l-1.544-1.544a1,1,0,0,1,1.414-1.414l.837.837,2.381-2.381a1,1,0,1,1,1.414,1.414l-3.088,3.088A1,1,0,0,1,27.044,17.588Z" transform="translate(-13.148 -8.868)" fill="#fff"/></g></g></svg>