<svg xmlns="http://www.w3.org/2000/svg" width="24" height="24" viewBox="0 0 24 24"><g transform="translate(-58)"><path d="M1.408-1H15.485a2.312,2.312,0,0,1,2.408,2.2V7.18a1,1,0,0,1-1,1H0a1,1,0,0,1-1-1V1.2A2.312,2.312,0,0,1,1.408-1ZM15.893,6.18V1.2c0-.049-.145-.2-.408-.2H1.408C1.145,1,1,1.148,1,1.2V6.18ZM0,9.777H16.893a1,1,0,0,1,1,1v1.2a3.628,3.628,0,0,1-3.815,3.395H12.262v1.395a3.628,3.628,0,0,1-3.815,3.395,3.628,3.628,0,0,1-3.815-3.395V15.369H2.815A3.628,3.628,0,0,1-1,11.974v-1.2A1,1,0,0,1,0,9.777Zm15.893,2H1v.2a1.67,1.67,0,0,0,1.815,1.395H5.631a1,1,0,0,1,1,1v2.395a1.67,1.67,0,0,0,1.815,1.395,1.67,1.67,0,0,0,1.815-1.395V14.369a1,1,0,0,1,1-1h2.815a1.67,1.67,0,0,0,1.815-1.395Z" transform="translate(61.059 2.42)" fill="#fff"/><rect width="24" height="24" transform="translate(58)" fill="none"/></g></svg>