<svg xmlns="http://www.w3.org/2000/svg" width="24" height="24" viewBox="0 0 24 24"><g transform="translate(-67 -173)"><g transform="translate(-82 -513.271)"><path d="M17,1H0A1,1,0,0,1-1,0,1,1,0,0,1,0-1H17a1,1,0,0,1,1,1A1,1,0,0,1,17,1Z" transform="translate(152 707)" fill="#010202"/><path d="M-2249.313,11565.057a1,1,0,0,1-.718-.3,1,1,0,0,1,.021-1.414l6.17-5.984a1,1,0,0,1,1.393,0l1.928,1.87,7.509-7.281a1,1,0,0,1,1.414.021,1,1,0,0,1-.022,1.414l-8.205,7.956a1,1,0,0,1-1.392,0l-1.928-1.87-5.474,5.31A1,1,0,0,1-2249.313,11565.057Z" transform="translate(2401.313 -10862.391)" fill="#010202"/></g><rect width="24" height="24" transform="translate(67 173)" fill="none"/></g></svg>