<svg xmlns="http://www.w3.org/2000/svg" width="24" height="24" viewBox="0 0 24 24"><g transform="translate(-60 -173)"><path d="M4.7,2H18.3A2.6,2.6,0,0,1,21,4.486V13.4a2.6,2.6,0,0,1-2.7,2.486H6.776L3.658,18.612A1,1,0,0,1,2,17.859V4.486A2.6,2.6,0,0,1,4.7,2ZM18.3,13.887c.4,0,.7-.257.7-.486V4.486C19,4.257,18.7,4,18.3,4H4.7c-.4,0-.7.257-.7.486V15.657l1.743-1.523a1,1,0,0,1,.658-.247Z" transform="translate(59.982 174.256)" fill="#010202"/><rect width="24" height="24" transform="translate(60 173)" fill="none"/></g></svg>