<svg xmlns="http://www.w3.org/2000/svg" width="26.603" height="33.905" viewBox="0 0 26.603 33.905"><g transform="translate(-53.397 -163.095)"><rect width="24" height="24" transform="translate(56 173)" fill="none"/><g transform="translate(56 173.507)"><path d="M4.7,2H18.287a2.7,2.7,0,0,1,2.7,2.7V8.1a2.7,2.7,0,0,1-2.7,2.7H4.7A2.7,2.7,0,0,1,2,8.1V4.7A2.7,2.7,0,0,1,4.7,2ZM18.287,8.794a.7.7,0,0,0,.7-.7V4.7a.7.7,0,0,0-.7-.7H4.7a.7.7,0,0,0-.7.7V8.1a.7.7,0,0,0,.7.7Z" transform="translate(0 0)" fill="#010202"/><path d="M4.7,20H18.287a2.7,2.7,0,0,1,2.7,2.7v3.4a2.7,2.7,0,0,1-2.7,2.7H4.7A2.7,2.7,0,0,1,2,26.1V22.7A2.7,2.7,0,0,1,4.7,20Zm13.588,6.794a.7.7,0,0,0,.7-.7V22.7a.7.7,0,0,0-.7-.7H4.7a.7.7,0,0,0-.7.7v3.4a.7.7,0,0,0,.7.7Z" transform="translate(0 -7.809)" fill="#010202"/><path transform="translate(-2.603 -2.603)" fill="#010202"/><path transform="translate(-2.603 -10.412)" fill="#010202"/></g></g></svg>