<svg xmlns="http://www.w3.org/2000/svg" width="26.603" height="33.905" viewBox="0 0 26.603 33.905"><g transform="translate(-53.397 9.905)"><rect width="24" height="24" transform="translate(56)" fill="none"/><g transform="translate(59 3.507)"><path d="M4.7,2H18.287a2.7,2.7,0,0,1,2.7,2.7V8.1a2.7,2.7,0,0,1-2.7,2.7H4.7A2.7,2.7,0,0,1,2,8.1V4.7A2.7,2.7,0,0,1,4.7,2ZM18.287,8.794a.7.7,0,0,0,.7-.7V4.7a.7.7,0,0,0-.7-.7H4.7a.7.7,0,0,0-.7.7V8.1a.7.7,0,0,0,.7.7Z" transform="translate(-3 -3)" fill="#fff"/><path d="M4.7,20H18.287a2.7,2.7,0,0,1,2.7,2.7v3.4a2.7,2.7,0,0,1-2.7,2.7H4.7A2.7,2.7,0,0,1,2,26.1V22.7A2.7,2.7,0,0,1,4.7,20Zm13.588,6.794a.7.7,0,0,0,.7-.7V22.7a.7.7,0,0,0-.7-.7H4.7a.7.7,0,0,0-.7.7v3.4a.7.7,0,0,0,.7.7Z" transform="translate(-3 -10.809)" fill="#fff"/><path transform="translate(-5.603 -5.603)" fill="#fff"/><path transform="translate(-5.603 -13.412)" fill="#fff"/></g></g></svg>