<svg xmlns="http://www.w3.org/2000/svg" width="24" height="24" viewBox="0 0 24 24"><g transform="translate(-61 -265)"><g transform="translate(60.989 264.202)"><path d="M4.7,5h13.6a2.692,2.692,0,0,1,2.7,2.677V17.742a2.692,2.692,0,0,1-2.7,2.677H4.7A2.692,2.692,0,0,1,2,17.742V7.677A2.692,2.692,0,0,1,4.7,5Zm13.6,13.419a.7.7,0,0,0,.7-.677V7.677a.7.7,0,0,0-.7-.677H4.7a.7.7,0,0,0-.7.677V17.742a.7.7,0,0,0,.7.677Z" fill="#010202"/><path d="M11.5,15.871a1,1,0,0,1-.568-.177l-8.5-5.871A1,1,0,1,1,3.568,8.177L11.5,13.656l7.935-5.479a1,1,0,1,1,1.136,1.646l-8.5,5.871A1,1,0,0,1,11.5,15.871Z" transform="translate(0 -1.323)" fill="#010202"/></g><rect width="24" height="24" transform="translate(61 265)" fill="none"/></g></svg>