<svg xmlns="http://www.w3.org/2000/svg" width="24" height="24" viewBox="0 0 24 24"><g transform="translate(-57 -173)"><g transform="translate(2362.075 -11222)"><g transform="translate(-2302 11401)"><path d="M3,3.5H8.063a4.846,4.846,0,0,1,3.007,1,3.436,3.436,0,0,1,1.368,2.674v9.355a1,1,0,1,1-2,0c0-.475-.629-1-1.531-1H3a1,1,0,0,1-1-1V4.5A1,1,0,0,1,3,3.5Zm7.438,10.317V7.173c0-.907-1.088-1.673-2.375-1.673H4v8.024H8.906A4.072,4.072,0,0,1,10.438,13.817Z" transform="translate(-3 -4.5)" fill="#010202"/><path d="M21.375,3.5h5.063a1,1,0,0,1,1,1V14.524a1,1,0,0,1-1,1H20.531c-.9,0-1.531.53-1.531,1a1,1,0,0,1-2,0V7.173A3.436,3.436,0,0,1,18.368,4.5,4.847,4.847,0,0,1,21.375,3.5Zm4.063,2H21.375C20.088,5.5,19,6.266,19,7.173v6.644a4.072,4.072,0,0,1,1.531-.294h4.906Z" transform="translate(-9.562 -4.5)" fill="#010202"/></g></g><rect width="24" height="24" transform="translate(57 173)" fill="none"/></g></svg>