<svg xmlns="http://www.w3.org/2000/svg" width="24" height="24" viewBox="0 0 24 24"><g transform="translate(-59 -265)"><rect width="24" height="24" transform="translate(59 265)" fill="none"/><g transform="translate(62.614 269.108)"><g transform="translate(0.41 0.41)"><path d="M7.482,0a7.482,7.482,0,1,0,7.482,7.482A7.482,7.482,0,0,0,7.482,0m0-2A9.482,9.482,0,1,1-2,7.482,9.492,9.492,0,0,1,7.482-2Z" fill="#010202"/><path d="M54.073,44.548a7.776,7.776,0,0,1-5.445-2.487.5.5,0,0,1,.7-.717,6.819,6.819,0,0,0,4.748,2.2,6.819,6.819,0,0,0,4.748-2.2.5.5,0,1,1,.7.717A7.777,7.777,0,0,1,54.073,44.548Z" transform="translate(-46.591 -39.698)" fill="#010202"/><path d="M48.977,232.2a.5.5,0,0,1-.366-.84,7.477,7.477,0,0,1,5.463-2.761,7.477,7.477,0,0,1,5.463,2.761.5.5,0,1,1-.733.68,6.53,6.53,0,0,0-4.73-2.441,6.53,6.53,0,0,0-4.73,2.441A.5.5,0,0,1,48.977,232.2Z" transform="translate(-46.591 -218.739)" fill="#010202"/><path d="M70.97,19.522a.5.5,0,0,1-.326-.121,10.327,10.327,0,0,1,0-15.656A.5.5,0,0,1,71.3,4.5a9.327,9.327,0,0,0,0,14.14.5.5,0,0,1-.327.879Z" transform="translate(-64.193 -4.091)" fill="#010202"/><path d="M159.536,19.512a.5.5,0,0,1-.326-.879,9.327,9.327,0,0,0,0-14.141.5.5,0,0,1,.652-.758,10.327,10.327,0,0,1,0,15.656A.5.5,0,0,1,159.536,19.512Z" transform="translate(-151.35 -4.081)" fill="#010202"/><path d="M14.963.5H0A.5.5,0,0,1-.5,0,.5.5,0,0,1,0-.5H14.963a.5.5,0,0,1,.5.5A.5.5,0,0,1,14.963.5Z" transform="translate(0 7.482)" fill="#010202"/><path d="M0,15.463a.5.5,0,0,1-.5-.5V0A.5.5,0,0,1,0-.5.5.5,0,0,1,.5,0V14.963A.5.5,0,0,1,0,15.463Z" transform="translate(7.482)" fill="#010202"/></g></g></g></svg>