<svg xmlns="http://www.w3.org/2000/svg" width="24" height="24" viewBox="0 0 24 24"><g transform="translate(2331 -13840)"><g transform="translate(-2329.509 13840.499)"><path d="M13.908,28.153a1,1,0,0,1-1-1V25.6a2.1,2.1,0,0,0-2.1-2.1H4.6a2.1,2.1,0,0,0-2.1,2.1v1.551a1,1,0,0,1-2,0V25.6a4.1,4.1,0,0,1,4.1-4.1h6.2a4.107,4.107,0,0,1,4.1,4.1v1.551A1,1,0,0,1,13.908,28.153Z" transform="translate(0 -8.694)" fill="#010202"/><path d="M10.6,11.7a4.1,4.1,0,1,1,4.1-4.1A4.107,4.107,0,0,1,10.6,11.7Zm0-6.2a2.1,2.1,0,1,0,2.1,2.1A2.1,2.1,0,0,0,10.6,5.5Z" transform="translate(-2.898 0)" fill="#010202"/><path d="M32.326,28.247a1,1,0,0,1-1-1V25.7a2.1,2.1,0,0,0-1.576-2.033,1,1,0,1,1,.5-1.936A4.1,4.1,0,0,1,33.326,25.7v1.552A1,1,0,0,1,32.326,28.247Z" transform="translate(-13.766 -8.788)" fill="#010202"/><path d="M24,11.705a1,1,0,0,1-.247-1.969,2.1,2.1,0,0,0,0-4.073,1,1,0,1,1,.5-1.937,4.1,4.1,0,0,1,0,7.948A1,1,0,0,1,24,11.705Z" transform="translate(-10.868 -0.094)" fill="#010202"/></g><rect width="24" height="24" transform="translate(-2331 13840)" fill="none"/></g></svg>